<svg width="612" height="443" viewBox="0 0 612 443" fill="none" xmlns="http://www.w3.org/2000/svg">
<path d="M0 10C0 4.47715 4.47715 0 10 0H633C638.523 0 643 4.47715 643 10V433C643 438.523 638.523 443 633 443H10C4.47716 443 0 438.523 0 433V10Z" fill="#FFF3E3"/>
<path d="M47.9 98.7913C51.748 98.7913 55.1107 99.554 57.988 101.079C60.8653 102.605 63.084 104.754 64.644 107.527C66.2387 110.266 67.036 113.438 67.036 117.043C67.036 120.614 66.2387 123.786 64.644 126.559C63.084 129.333 60.848 131.482 57.936 133.007C55.0587 134.533 51.7133 135.295 47.9 135.295H34.224V98.7913H47.9ZM47.328 127.599C50.6907 127.599 53.308 126.681 55.18 124.843C57.052 123.006 57.988 120.406 57.988 117.043C57.988 113.681 57.052 111.063 55.18 109.191C53.308 107.319 50.6907 106.383 47.328 106.383H43.116V127.599H47.328ZM76.4773 103.263C74.9173 103.263 73.6346 102.813 72.6293 101.911C71.6586 100.975 71.1733 99.8313 71.1733 98.4793C71.1733 97.0926 71.6586 95.9486 72.6293 95.0473C73.6346 94.1113 74.9173 93.6433 76.4773 93.6433C78.0026 93.6433 79.2506 94.1113 80.2213 95.0473C81.2266 95.9486 81.7293 97.0926 81.7293 98.4793C81.7293 99.8313 81.2266 100.975 80.2213 101.911C79.2506 102.813 78.0026 103.263 76.4773 103.263ZM80.8973 106.279V135.295H72.0053V106.279H80.8973ZM99.1452 135.711C96.6145 135.711 94.3612 135.278 92.3852 134.411C90.4092 133.545 88.8492 132.366 87.7052 130.875C86.5612 129.35 85.9199 127.651 85.7812 125.779H94.5692C94.6732 126.785 95.1412 127.599 95.9732 128.223C96.8052 128.847 97.8279 129.159 99.0412 129.159C100.151 129.159 101 128.951 101.589 128.535C102.213 128.085 102.525 127.513 102.525 126.819C102.525 125.987 102.092 125.381 101.225 124.999C100.359 124.583 98.9545 124.133 97.0132 123.647C94.9332 123.162 93.1999 122.659 91.8132 122.139C90.4265 121.585 89.2305 120.735 88.2252 119.591C87.2199 118.413 86.7172 116.835 86.7172 114.859C86.7172 113.195 87.1679 111.687 88.0692 110.335C89.0052 108.949 90.3572 107.857 92.1252 107.059C93.9279 106.262 96.0599 105.863 98.5212 105.863C102.161 105.863 105.021 106.765 107.101 108.567C109.216 110.37 110.429 112.762 110.741 115.743H102.525C102.387 114.738 101.936 113.941 101.173 113.351C100.445 112.762 99.4745 112.467 98.2612 112.467C97.2212 112.467 96.4239 112.675 95.8692 113.091C95.3145 113.473 95.0372 114.01 95.0372 114.703C95.0372 115.535 95.4705 116.159 96.3372 116.575C97.2385 116.991 98.6252 117.407 100.497 117.823C102.647 118.378 104.397 118.933 105.749 119.487C107.101 120.007 108.28 120.874 109.285 122.087C110.325 123.266 110.863 124.861 110.897 126.871C110.897 128.57 110.412 130.095 109.441 131.447C108.505 132.765 107.136 133.805 105.333 134.567C103.565 135.33 101.503 135.711 99.1452 135.711ZM114.569 120.787C114.569 117.771 115.176 115.137 116.389 112.883C117.637 110.63 119.353 108.897 121.537 107.683C123.756 106.47 126.287 105.863 129.129 105.863C132.769 105.863 135.803 106.817 138.229 108.723C140.691 110.63 142.303 113.317 143.065 116.783H133.601C132.804 114.565 131.261 113.455 128.973 113.455C127.344 113.455 126.044 114.097 125.073 115.379C124.103 116.627 123.617 118.43 123.617 120.787C123.617 123.145 124.103 124.965 125.073 126.247C126.044 127.495 127.344 128.119 128.973 128.119C131.261 128.119 132.804 127.01 133.601 124.791H143.065C142.303 128.189 140.691 130.858 138.229 132.799C135.768 134.741 132.735 135.711 129.129 135.711C126.287 135.711 123.756 135.105 121.537 133.891C119.353 132.678 117.637 130.945 116.389 128.691C115.176 126.438 114.569 123.803 114.569 120.787ZM161.03 135.711C158.187 135.711 155.622 135.105 153.334 133.891C151.08 132.678 149.295 130.945 147.978 128.691C146.695 126.438 146.054 123.803 146.054 120.787C146.054 117.806 146.712 115.189 148.03 112.935C149.347 110.647 151.15 108.897 153.438 107.683C155.726 106.47 158.291 105.863 161.134 105.863C163.976 105.863 166.542 106.47 168.83 107.683C171.118 108.897 172.92 110.647 174.238 112.935C175.555 115.189 176.214 117.806 176.214 120.787C176.214 123.769 175.538 126.403 174.186 128.691C172.868 130.945 171.048 132.678 168.726 133.891C166.438 135.105 163.872 135.711 161.03 135.711ZM161.03 128.015C162.728 128.015 164.167 127.391 165.346 126.143C166.559 124.895 167.166 123.11 167.166 120.787C167.166 118.465 166.576 116.679 165.398 115.431C164.254 114.183 162.832 113.559 161.134 113.559C159.4 113.559 157.962 114.183 156.818 115.431C155.674 116.645 155.102 118.43 155.102 120.787C155.102 123.11 155.656 124.895 156.766 126.143C157.91 127.391 159.331 128.015 161.03 128.015ZM193.983 126.975L200.275 106.279H209.739L199.443 135.295H188.471L178.175 106.279H187.691L193.983 126.975ZM240.834 120.319C240.834 121.151 240.782 122.018 240.678 122.919H220.554C220.692 124.722 221.264 126.109 222.27 127.079C223.31 128.015 224.575 128.483 226.066 128.483C228.284 128.483 229.827 127.547 230.694 125.675H240.158C239.672 127.582 238.788 129.298 237.506 130.823C236.258 132.349 234.68 133.545 232.774 134.411C230.867 135.278 228.735 135.711 226.378 135.711C223.535 135.711 221.004 135.105 218.786 133.891C216.567 132.678 214.834 130.945 213.586 128.691C212.338 126.438 211.714 123.803 211.714 120.787C211.714 117.771 212.32 115.137 213.534 112.883C214.782 110.63 216.515 108.897 218.734 107.683C220.952 106.47 223.5 105.863 226.378 105.863C229.186 105.863 231.682 106.453 233.866 107.631C236.05 108.81 237.748 110.491 238.962 112.675C240.21 114.859 240.834 117.407 240.834 120.319ZM231.734 117.979C231.734 116.454 231.214 115.241 230.174 114.339C229.134 113.438 227.834 112.987 226.274 112.987C224.783 112.987 223.518 113.421 222.478 114.287C221.472 115.154 220.848 116.385 220.606 117.979H231.734ZM254.417 111.115C255.457 109.521 256.757 108.273 258.317 107.371C259.877 106.435 261.61 105.967 263.517 105.967V115.379H261.073C258.854 115.379 257.19 115.865 256.081 116.835C254.971 117.771 254.417 119.435 254.417 121.827V135.295H245.525V106.279H254.417V111.115ZM296.051 135.659C292.619 135.659 289.464 134.862 286.587 133.267C283.744 131.673 281.473 129.454 279.775 126.611C278.11 123.734 277.278 120.51 277.278 116.939C277.278 113.369 278.11 110.162 279.775 107.319C281.473 104.477 283.744 102.258 286.587 100.663C289.464 99.0686 292.619 98.2713 296.051 98.2713C299.483 98.2713 302.62 99.0686 305.463 100.663C308.34 102.258 310.593 104.477 312.223 107.319C313.887 110.162 314.719 113.369 314.719 116.939C314.719 120.51 313.887 123.734 312.223 126.611C310.559 129.454 308.305 131.673 305.463 133.267C302.62 134.862 299.483 135.659 296.051 135.659ZM296.051 127.547C298.963 127.547 301.285 126.577 303.018 124.635C304.787 122.694 305.671 120.129 305.671 116.939C305.671 113.715 304.787 111.15 303.018 109.243C301.285 107.302 298.963 106.331 296.051 106.331C293.104 106.331 290.747 107.285 288.979 109.191C287.245 111.098 286.379 113.681 286.379 116.939C286.379 120.163 287.245 122.746 288.979 124.687C290.747 126.594 293.104 127.547 296.051 127.547ZM348.317 106.279V135.295H339.425V131.343C338.524 132.626 337.293 133.666 335.733 134.463C334.208 135.226 332.509 135.607 330.637 135.607C328.419 135.607 326.46 135.122 324.761 134.151C323.063 133.146 321.745 131.707 320.809 129.835C319.873 127.963 319.405 125.762 319.405 123.231V106.279H328.245V122.035C328.245 123.977 328.748 125.485 329.753 126.559C330.759 127.634 332.111 128.171 333.809 128.171C335.543 128.171 336.912 127.634 337.917 126.559C338.923 125.485 339.425 123.977 339.425 122.035V106.279H348.317ZM363.596 111.115C364.636 109.521 365.936 108.273 367.496 107.371C369.056 106.435 370.79 105.967 372.696 105.967V115.379H370.252C368.034 115.379 366.37 115.865 365.26 116.835C364.151 117.771 363.596 119.435 363.596 121.827V135.295H354.704V106.279H363.596V111.115ZM66.88 200.295H57.988L43.116 177.779V200.295H34.224V163.791H43.116L57.988 186.411V163.791H66.88V200.295ZM100.678 185.319C100.678 186.151 100.626 187.018 100.522 187.919H80.3976C80.5362 189.722 81.1082 191.109 82.1136 192.079C83.1536 193.015 84.4189 193.483 85.9096 193.483C88.1282 193.483 89.6709 192.547 90.5376 190.675H100.002C99.5162 192.582 98.6322 194.298 97.3496 195.823C96.1016 197.349 94.5242 198.545 92.6176 199.411C90.7109 200.278 88.5789 200.711 86.2216 200.711C83.3789 200.711 80.8482 200.105 78.6296 198.891C76.4109 197.678 74.6776 195.945 73.4296 193.691C72.1816 191.438 71.5576 188.803 71.5576 185.787C71.5576 182.771 72.1642 180.137 73.3776 177.883C74.6256 175.63 76.3589 173.897 78.5776 172.683C80.7962 171.47 83.3442 170.863 86.2216 170.863C89.0296 170.863 91.5256 171.453 93.7096 172.631C95.8936 173.81 97.5922 175.491 98.8056 177.675C100.054 179.859 100.678 182.407 100.678 185.319ZM91.5776 182.979C91.5776 181.454 91.0576 180.241 90.0176 179.339C88.9776 178.438 87.6776 177.987 86.1176 177.987C84.6269 177.987 83.3616 178.421 82.3216 179.287C81.3162 180.154 80.6922 181.385 80.4496 182.979H91.5776ZM147.021 171.279L139.169 200.295H129.341L124.765 181.471L120.033 200.295H110.257L102.353 171.279H111.245L115.353 192.027L120.241 171.279H129.653L134.593 191.923L138.649 171.279H147.021ZM159.923 181.991C159.923 178.386 160.703 175.179 162.263 172.371C163.823 169.529 165.99 167.327 168.763 165.767C171.571 164.173 174.743 163.375 178.279 163.375C182.612 163.375 186.322 164.519 189.407 166.807C192.492 169.095 194.555 172.215 195.595 176.167H185.819C185.091 174.642 184.051 173.481 182.699 172.683C181.382 171.886 179.874 171.487 178.175 171.487C175.436 171.487 173.218 172.441 171.519 174.347C169.82 176.254 168.971 178.802 168.971 181.991C168.971 185.181 169.82 187.729 171.519 189.635C173.218 191.542 175.436 192.495 178.175 192.495C179.874 192.495 181.382 192.097 182.699 191.299C184.051 190.502 185.091 189.341 185.819 187.815H195.595C194.555 191.767 192.492 194.887 189.407 197.175C186.322 199.429 182.612 200.555 178.279 200.555C174.743 200.555 171.571 199.775 168.763 198.215C165.99 196.621 163.823 194.419 162.263 191.611C160.703 188.803 159.923 185.597 159.923 181.991ZM214.248 200.711C211.406 200.711 208.84 200.105 206.552 198.891C204.299 197.678 202.514 195.945 201.196 193.691C199.914 191.438 199.272 188.803 199.272 185.787C199.272 182.806 199.931 180.189 201.248 177.935C202.566 175.647 204.368 173.897 206.656 172.683C208.944 171.47 211.51 170.863 214.352 170.863C217.195 170.863 219.76 171.47 222.048 172.683C224.336 173.897 226.139 175.647 227.456 177.935C228.774 180.189 229.432 182.806 229.432 185.787C229.432 188.769 228.756 191.403 227.404 193.691C226.087 195.945 224.267 197.678 221.944 198.891C219.656 200.105 217.091 200.711 214.248 200.711ZM214.248 193.015C215.947 193.015 217.386 192.391 218.564 191.143C219.778 189.895 220.384 188.11 220.384 185.787C220.384 183.465 219.795 181.679 218.616 180.431C217.472 179.183 216.051 178.559 214.352 178.559C212.619 178.559 211.18 179.183 210.036 180.431C208.892 181.645 208.32 183.43 208.32 185.787C208.32 188.11 208.875 189.895 209.984 191.143C211.128 192.391 212.55 193.015 214.248 193.015ZM243.042 161.815V200.295H234.15V161.815H243.042ZM258.378 161.815V200.295H249.486V161.815H258.378ZM292.174 185.319C292.174 186.151 292.122 187.018 292.018 187.919H271.894C272.032 189.722 272.604 191.109 273.61 192.079C274.65 193.015 275.915 193.483 277.406 193.483C279.624 193.483 281.167 192.547 282.034 190.675H291.498C291.012 192.582 290.128 194.298 288.846 195.823C287.598 197.349 286.02 198.545 284.114 199.411C282.207 200.278 280.075 200.711 277.718 200.711C274.875 200.711 272.344 200.105 270.126 198.891C267.907 197.678 266.174 195.945 264.926 193.691C263.678 191.438 263.054 188.803 263.054 185.787C263.054 182.771 263.66 180.137 264.874 177.883C266.122 175.63 267.855 173.897 270.074 172.683C272.292 171.47 274.84 170.863 277.718 170.863C280.526 170.863 283.022 171.453 285.206 172.631C287.39 173.81 289.088 175.491 290.302 177.675C291.55 179.859 292.174 182.407 292.174 185.319ZM283.074 182.979C283.074 181.454 282.554 180.241 281.514 179.339C280.474 178.438 279.174 177.987 277.614 177.987C276.123 177.987 274.858 178.421 273.818 179.287C272.812 180.154 272.188 181.385 271.946 182.979H283.074ZM295.097 185.787C295.097 182.771 295.703 180.137 296.917 177.883C298.165 175.63 299.881 173.897 302.065 172.683C304.283 171.47 306.814 170.863 309.657 170.863C313.297 170.863 316.33 171.817 318.757 173.723C321.218 175.63 322.83 178.317 323.593 181.783H314.129C313.331 179.565 311.789 178.455 309.501 178.455C307.871 178.455 306.571 179.097 305.601 180.379C304.63 181.627 304.145 183.43 304.145 185.787C304.145 188.145 304.63 189.965 305.601 191.247C306.571 192.495 307.871 193.119 309.501 193.119C311.789 193.119 313.331 192.01 314.129 189.791H323.593C322.83 193.189 321.218 195.858 318.757 197.799C316.295 199.741 313.262 200.711 309.657 200.711C306.814 200.711 304.283 200.105 302.065 198.891C299.881 197.678 298.165 195.945 296.917 193.691C295.703 191.438 295.097 188.803 295.097 185.787ZM344.521 192.755V200.295H339.997C336.773 200.295 334.26 199.515 332.457 197.955C330.654 196.361 329.753 193.778 329.753 190.207V178.663H326.217V171.279H329.753V164.207H338.645V171.279H344.469V178.663H338.645V190.311C338.645 191.178 338.853 191.802 339.269 192.183C339.685 192.565 340.378 192.755 341.349 192.755H344.521ZM353.946 168.263C352.386 168.263 351.103 167.813 350.098 166.911C349.127 165.975 348.642 164.831 348.642 163.479C348.642 162.093 349.127 160.949 350.098 160.047C351.103 159.111 352.386 158.643 353.946 158.643C355.471 158.643 356.719 159.111 357.69 160.047C358.695 160.949 359.198 162.093 359.198 163.479C359.198 164.831 358.695 165.975 357.69 166.911C356.719 167.813 355.471 168.263 353.946 168.263ZM358.366 171.279V200.295H349.474V171.279H358.366ZM378.018 200.711C375.175 200.711 372.61 200.105 370.322 198.891C368.069 197.678 366.283 195.945 364.966 193.691C363.683 191.438 363.042 188.803 363.042 185.787C363.042 182.806 363.701 180.189 365.018 177.935C366.335 175.647 368.138 173.897 370.426 172.683C372.714 171.47 375.279 170.863 378.122 170.863C380.965 170.863 383.53 171.47 385.818 172.683C388.106 173.897 389.909 175.647 391.226 177.935C392.543 180.189 393.202 182.806 393.202 185.787C393.202 188.769 392.526 191.403 391.174 193.691C389.857 195.945 388.037 197.678 385.714 198.891C383.426 200.105 380.861 200.711 378.018 200.711ZM378.018 193.015C379.717 193.015 381.155 192.391 382.334 191.143C383.547 189.895 384.154 188.11 384.154 185.787C384.154 183.465 383.565 181.679 382.386 180.431C381.242 179.183 379.821 178.559 378.122 178.559C376.389 178.559 374.95 179.183 373.806 180.431C372.662 181.645 372.09 183.43 372.09 185.787C372.09 188.11 372.645 189.895 373.754 191.143C374.898 192.391 376.319 193.015 378.018 193.015ZM415.599 170.967C418.997 170.967 421.701 172.077 423.711 174.295C425.757 176.479 426.779 179.495 426.779 183.343V200.295H417.939V184.539C417.939 182.598 417.437 181.09 416.431 180.015C415.426 178.941 414.074 178.403 412.375 178.403C410.677 178.403 409.325 178.941 408.319 180.015C407.314 181.09 406.811 182.598 406.811 184.539V200.295H397.919V171.279H406.811V175.127C407.713 173.845 408.926 172.839 410.451 172.111C411.977 171.349 413.693 170.967 415.599 170.967Z" fill="#B88E2F"/>
<path d="M34.402 244.639H38.632V246.295H32.35V233.785H34.402V244.639ZM44.65 246.457C43.714 246.457 42.868 246.247 42.112 245.827C41.356 245.395 40.762 244.795 40.33 244.027C39.898 243.247 39.682 242.347 39.682 241.327C39.682 240.319 39.904 239.425 40.348 238.645C40.792 237.865 41.398 237.265 42.166 236.845C42.934 236.425 43.792 236.215 44.74 236.215C45.688 236.215 46.546 236.425 47.314 236.845C48.082 237.265 48.688 237.865 49.132 238.645C49.576 239.425 49.798 240.319 49.798 241.327C49.798 242.335 49.57 243.229 49.114 244.009C48.658 244.789 48.034 245.395 47.242 245.827C46.462 246.247 45.598 246.457 44.65 246.457ZM44.65 244.675C45.178 244.675 45.67 244.549 46.126 244.297C46.594 244.045 46.972 243.667 47.26 243.163C47.548 242.659 47.692 242.047 47.692 241.327C47.692 240.607 47.554 240.001 47.278 239.509C47.002 239.005 46.636 238.627 46.18 238.375C45.724 238.123 45.232 237.997 44.704 237.997C44.176 237.997 43.684 238.123 43.228 238.375C42.784 238.627 42.43 239.005 42.166 239.509C41.902 240.001 41.77 240.607 41.77 241.327C41.77 242.395 42.04 243.223 42.58 243.811C43.132 244.387 43.822 244.675 44.65 244.675ZM53.8786 237.817C54.1786 237.313 54.5746 236.923 55.0666 236.647C55.5706 236.359 56.1646 236.215 56.8486 236.215V238.339H56.3266C55.5226 238.339 54.9106 238.543 54.4906 238.951C54.0826 239.359 53.8786 240.067 53.8786 241.075V246.295H51.8266V236.377H53.8786V237.817ZM67.8248 241.093C67.8248 241.465 67.8008 241.801 67.7528 242.101H60.1748C60.2348 242.893 60.5288 243.529 61.0568 244.009C61.5848 244.489 62.2328 244.729 63.0008 244.729C64.1048 244.729 64.8848 244.267 65.3408 243.343H67.5548C67.2548 244.255 66.7088 245.005 65.9168 245.593C65.1368 246.169 64.1648 246.457 63.0008 246.457C62.0528 246.457 61.2008 246.247 60.4448 245.827C59.7008 245.395 59.1128 244.795 58.6808 244.027C58.2608 243.247 58.0508 242.347 58.0508 241.327C58.0508 240.307 58.2548 239.413 58.6628 238.645C59.0828 237.865 59.6648 237.265 60.4088 236.845C61.1648 236.425 62.0288 236.215 63.0008 236.215C63.9368 236.215 64.7708 236.419 65.5028 236.827C66.2348 237.235 66.8048 237.811 67.2128 238.555C67.6208 239.287 67.8248 240.133 67.8248 241.093ZM65.6828 240.445C65.6708 239.689 65.4008 239.083 64.8728 238.627C64.3448 238.171 63.6908 237.943 62.9108 237.943C62.2028 237.943 61.5968 238.171 61.0928 238.627C60.5888 239.071 60.2888 239.677 60.1928 240.445H65.6828ZM81.8501 236.215C82.6301 236.215 83.3261 236.377 83.9381 236.701C84.5621 237.025 85.0481 237.505 85.3961 238.141C85.7561 238.777 85.9361 239.545 85.9361 240.445V246.295H83.9021V240.751C83.9021 239.863 83.6801 239.185 83.2361 238.717C82.7921 238.237 82.1861 237.997 81.4181 237.997C80.6501 237.997 80.0381 238.237 79.5821 238.717C79.1381 239.185 78.9161 239.863 78.9161 240.751V246.295H76.8821V240.751C76.8821 239.863 76.6601 239.185 76.2161 238.717C75.7721 238.237 75.1661 237.997 74.3981 237.997C73.6301 237.997 73.0181 238.237 72.5621 238.717C72.1181 239.185 71.8961 239.863 71.8961 240.751V246.295H69.8441V236.377H71.8961V237.511C72.2321 237.103 72.6581 236.785 73.1741 236.557C73.6901 236.329 74.2421 236.215 74.8301 236.215C75.6221 236.215 76.3301 236.383 76.9541 236.719C77.5781 237.055 78.0581 237.541 78.3941 238.177C78.6941 237.577 79.1621 237.103 79.7981 236.755C80.4341 236.395 81.1181 236.215 81.8501 236.215ZM94.267 235.063C93.895 235.063 93.583 234.937 93.331 234.685C93.079 234.433 92.953 234.121 92.953 233.749C92.953 233.377 93.079 233.065 93.331 232.813C93.583 232.561 93.895 232.435 94.267 232.435C94.627 232.435 94.933 232.561 95.185 232.813C95.437 233.065 95.563 233.377 95.563 233.749C95.563 234.121 95.437 234.433 95.185 234.685C94.933 234.937 94.627 235.063 94.267 235.063ZM95.275 236.377V246.295H93.223V236.377H95.275ZM100.021 237.835C100.369 237.379 100.843 236.995 101.443 236.683C102.043 236.371 102.721 236.215 103.477 236.215C104.341 236.215 105.127 236.431 105.835 236.863C106.555 237.283 107.119 237.877 107.527 238.645C107.935 239.413 108.139 240.295 108.139 241.291C108.139 242.287 107.935 243.181 107.527 243.973C107.119 244.753 106.555 245.365 105.835 245.809C105.127 246.241 104.341 246.457 103.477 246.457C102.721 246.457 102.049 246.307 101.461 246.007C100.873 245.695 100.393 245.311 100.021 244.855V251.011H97.9691V236.377H100.021V237.835ZM106.051 241.291C106.051 240.607 105.907 240.019 105.619 239.527C105.343 239.023 104.971 238.645 104.503 238.393C104.047 238.129 103.555 237.997 103.027 237.997C102.511 237.997 102.019 238.129 101.551 238.393C101.095 238.657 100.723 239.041 100.435 239.545C100.159 240.049 100.021 240.643 100.021 241.327C100.021 242.011 100.159 242.611 100.435 243.127C100.723 243.631 101.095 244.015 101.551 244.279C102.019 244.543 102.511 244.675 103.027 244.675C103.555 244.675 104.047 244.543 104.503 244.279C104.971 244.003 105.343 243.607 105.619 243.091C105.907 242.575 106.051 241.975 106.051 241.291ZM113.768 246.457C112.988 246.457 112.286 246.319 111.662 246.043C111.05 245.755 110.564 245.371 110.204 244.891C109.844 244.399 109.652 243.853 109.628 243.253H111.752C111.788 243.673 111.986 244.027 112.346 244.315C112.718 244.591 113.18 244.729 113.732 244.729C114.308 244.729 114.752 244.621 115.064 244.405C115.388 244.177 115.55 243.889 115.55 243.541C115.55 243.169 115.37 242.893 115.01 242.713C114.662 242.533 114.104 242.335 113.336 242.119C112.592 241.915 111.986 241.717 111.518 241.525C111.05 241.333 110.642 241.039 110.294 240.643C109.958 240.247 109.79 239.725 109.79 239.077C109.79 238.549 109.946 238.069 110.258 237.637C110.57 237.193 111.014 236.845 111.59 236.593C112.178 236.341 112.85 236.215 113.606 236.215C114.734 236.215 115.64 236.503 116.324 237.079C117.02 237.643 117.392 238.417 117.44 239.401H115.388C115.352 238.957 115.172 238.603 114.848 238.339C114.524 238.075 114.086 237.943 113.534 237.943C112.994 237.943 112.58 238.045 112.292 238.249C112.004 238.453 111.86 238.723 111.86 239.059C111.86 239.323 111.956 239.545 112.148 239.725C112.34 239.905 112.574 240.049 112.85 240.157C113.126 240.253 113.534 240.379 114.074 240.535C114.794 240.727 115.382 240.925 115.838 241.129C116.306 241.321 116.708 241.609 117.044 241.993C117.38 242.377 117.554 242.887 117.566 243.523C117.566 244.087 117.41 244.591 117.098 245.035C116.786 245.479 116.342 245.827 115.766 246.079C115.202 246.331 114.536 246.457 113.768 246.457ZM128.766 236.377V246.295H126.714V245.125C126.39 245.533 125.964 245.857 125.436 246.097C124.92 246.325 124.368 246.439 123.78 246.439C123 246.439 122.298 246.277 121.674 245.953C121.062 245.629 120.576 245.149 120.216 244.513C119.868 243.877 119.694 243.109 119.694 242.209V236.377H121.728V241.903C121.728 242.791 121.95 243.475 122.394 243.955C122.838 244.423 123.444 244.657 124.212 244.657C124.98 244.657 125.586 244.423 126.03 243.955C126.486 243.475 126.714 242.791 126.714 241.903V236.377H128.766ZM143.479 236.215C144.259 236.215 144.955 236.377 145.567 236.701C146.191 237.025 146.677 237.505 147.025 238.141C147.385 238.777 147.565 239.545 147.565 240.445V246.295H145.531V240.751C145.531 239.863 145.309 239.185 144.865 238.717C144.421 238.237 143.815 237.997 143.047 237.997C142.279 237.997 141.667 238.237 141.211 238.717C140.767 239.185 140.545 239.863 140.545 240.751V246.295H138.511V240.751C138.511 239.863 138.289 239.185 137.845 238.717C137.401 238.237 136.795 237.997 136.027 237.997C135.259 237.997 134.647 238.237 134.191 238.717C133.747 239.185 133.525 239.863 133.525 240.751V246.295H131.473V236.377H133.525V237.511C133.861 237.103 134.287 236.785 134.803 236.557C135.319 236.329 135.871 236.215 136.459 236.215C137.251 236.215 137.959 236.383 138.583 236.719C139.207 237.055 139.687 237.541 140.023 238.177C140.323 237.577 140.791 237.103 141.427 236.755C142.063 236.395 142.747 236.215 143.479 236.215ZM154.168 241.291C154.168 240.295 154.372 239.413 154.78 238.645C155.2 237.877 155.764 237.283 156.472 236.863C157.192 236.431 157.99 236.215 158.866 236.215C159.514 236.215 160.15 236.359 160.774 236.647C161.41 236.923 161.914 237.295 162.286 237.763V232.975H164.356V246.295H162.286V244.801C161.95 245.281 161.482 245.677 160.882 245.989C160.294 246.301 159.616 246.457 158.848 246.457C157.984 246.457 157.192 246.241 156.472 245.809C155.764 245.365 155.2 244.753 154.78 243.973C154.372 243.181 154.168 242.287 154.168 241.291ZM162.286 241.327C162.286 240.643 162.142 240.049 161.854 239.545C161.578 239.041 161.212 238.657 160.756 238.393C160.3 238.129 159.808 237.997 159.28 237.997C158.752 237.997 158.26 238.129 157.804 238.393C157.348 238.645 156.976 239.023 156.688 239.527C156.412 240.019 156.274 240.607 156.274 241.291C156.274 241.975 156.412 242.575 156.688 243.091C156.976 243.607 157.348 244.003 157.804 244.279C158.272 244.543 158.764 244.675 159.28 244.675C159.808 244.675 160.3 244.543 160.756 244.279C161.212 244.015 161.578 243.631 161.854 243.127C162.142 242.611 162.286 242.011 162.286 241.327ZM171.353 246.457C170.417 246.457 169.571 246.247 168.815 245.827C168.059 245.395 167.465 244.795 167.033 244.027C166.601 243.247 166.385 242.347 166.385 241.327C166.385 240.319 166.607 239.425 167.051 238.645C167.495 237.865 168.101 237.265 168.869 236.845C169.637 236.425 170.495 236.215 171.443 236.215C172.391 236.215 173.249 236.425 174.017 236.845C174.785 237.265 175.391 237.865 175.835 238.645C176.279 239.425 176.501 240.319 176.501 241.327C176.501 242.335 176.273 243.229 175.817 244.009C175.361 244.789 174.737 245.395 173.945 245.827C173.165 246.247 172.301 246.457 171.353 246.457ZM171.353 244.675C171.881 244.675 172.373 244.549 172.829 244.297C173.297 244.045 173.675 243.667 173.963 243.163C174.251 242.659 174.395 242.047 174.395 241.327C174.395 240.607 174.257 240.001 173.981 239.509C173.705 239.005 173.339 238.627 172.883 238.375C172.427 238.123 171.935 237.997 171.407 237.997C170.879 237.997 170.387 238.123 169.931 238.375C169.487 238.627 169.133 239.005 168.869 239.509C168.605 240.001 168.473 240.607 168.473 241.327C168.473 242.395 168.743 243.223 169.283 243.811C169.835 244.387 170.525 244.675 171.353 244.675ZM180.582 232.975V246.295H178.53V232.975H180.582ZM187.578 246.457C186.642 246.457 185.796 246.247 185.04 245.827C184.284 245.395 183.69 244.795 183.258 244.027C182.826 243.247 182.61 242.347 182.61 241.327C182.61 240.319 182.832 239.425 183.276 238.645C183.72 237.865 184.326 237.265 185.094 236.845C185.862 236.425 186.72 236.215 187.668 236.215C188.616 236.215 189.474 236.425 190.242 236.845C191.01 237.265 191.616 237.865 192.06 238.645C192.504 239.425 192.726 240.319 192.726 241.327C192.726 242.335 192.498 243.229 192.042 244.009C191.586 244.789 190.962 245.395 190.17 245.827C189.39 246.247 188.526 246.457 187.578 246.457ZM187.578 244.675C188.106 244.675 188.598 244.549 189.054 244.297C189.522 244.045 189.9 243.667 190.188 243.163C190.476 242.659 190.62 242.047 190.62 241.327C190.62 240.607 190.482 240.001 190.206 239.509C189.93 239.005 189.564 238.627 189.108 238.375C188.652 238.123 188.16 237.997 187.632 237.997C187.104 237.997 186.612 238.123 186.156 238.375C185.712 238.627 185.358 239.005 185.094 239.509C184.83 240.001 184.698 240.607 184.698 241.327C184.698 242.395 184.968 243.223 185.508 243.811C186.06 244.387 186.75 244.675 187.578 244.675ZM196.806 237.817C197.106 237.313 197.502 236.923 197.994 236.647C198.498 236.359 199.092 236.215 199.776 236.215V238.339H199.254C198.45 238.339 197.838 238.543 197.418 238.951C197.01 239.359 196.806 240.067 196.806 241.075V246.295H194.754V236.377H196.806V237.817ZM209.938 246.457C209.158 246.457 208.456 246.319 207.832 246.043C207.22 245.755 206.734 245.371 206.374 244.891C206.014 244.399 205.822 243.853 205.798 243.253H207.922C207.958 243.673 208.156 244.027 208.516 244.315C208.888 244.591 209.35 244.729 209.902 244.729C210.478 244.729 210.922 244.621 211.234 244.405C211.558 244.177 211.72 243.889 211.72 243.541C211.72 243.169 211.54 242.893 211.18 242.713C210.832 242.533 210.274 242.335 209.506 242.119C208.762 241.915 208.156 241.717 207.688 241.525C207.22 241.333 206.812 241.039 206.464 240.643C206.128 240.247 205.96 239.725 205.96 239.077C205.96 238.549 206.116 238.069 206.428 237.637C206.74 237.193 207.184 236.845 207.76 236.593C208.348 236.341 209.02 236.215 209.776 236.215C210.904 236.215 211.81 236.503 212.494 237.079C213.19 237.643 213.562 238.417 213.61 239.401H211.558C211.522 238.957 211.342 238.603 211.018 238.339C210.694 238.075 210.256 237.943 209.704 237.943C209.164 237.943 208.75 238.045 208.462 238.249C208.174 238.453 208.03 238.723 208.03 239.059C208.03 239.323 208.126 239.545 208.318 239.725C208.51 239.905 208.744 240.049 209.02 240.157C209.296 240.253 209.704 240.379 210.244 240.535C210.964 240.727 211.552 240.925 212.008 241.129C212.476 241.321 212.878 241.609 213.214 241.993C213.55 242.377 213.724 242.887 213.736 243.523C213.736 244.087 213.58 244.591 213.268 245.035C212.956 245.479 212.512 245.827 211.936 246.079C211.372 246.331 210.706 246.457 209.938 246.457ZM216.998 235.063C216.626 235.063 216.314 234.937 216.062 234.685C215.81 234.433 215.684 234.121 215.684 233.749C215.684 233.377 215.81 233.065 216.062 232.813C216.314 232.561 216.626 232.435 216.998 232.435C217.358 232.435 217.664 232.561 217.916 232.813C218.168 233.065 218.294 233.377 218.294 233.749C218.294 234.121 218.168 234.433 217.916 234.685C217.664 234.937 217.358 235.063 216.998 235.063ZM218.006 236.377V246.295H215.954V236.377H218.006ZM223.094 238.051V243.541C223.094 243.913 223.178 244.183 223.346 244.351C223.526 244.507 223.826 244.585 224.246 244.585H225.506V246.295H223.886C222.962 246.295 222.254 246.079 221.762 245.647C221.27 245.215 221.024 244.513 221.024 243.541V238.051H219.854V236.377H221.024V233.911H223.094V236.377H225.506V238.051H223.094ZM231.389 241.291C231.389 240.295 231.593 239.413 232.001 238.645C232.421 237.877 232.985 237.283 233.693 236.863C234.413 236.431 235.205 236.215 236.069 236.215C236.849 236.215 237.527 236.371 238.103 236.683C238.691 236.983 239.159 237.361 239.507 237.817V236.377H241.577V246.295H239.507V244.819C239.159 245.287 238.685 245.677 238.085 245.989C237.485 246.301 236.801 246.457 236.033 246.457C235.181 246.457 234.401 246.241 233.693 245.809C232.985 245.365 232.421 244.753 232.001 243.973C231.593 243.181 231.389 242.287 231.389 241.291ZM239.507 241.327C239.507 240.643 239.363 240.049 239.075 239.545C238.799 239.041 238.433 238.657 237.977 238.393C237.521 238.129 237.029 237.997 236.501 237.997C235.973 237.997 235.481 238.129 235.025 238.393C234.569 238.645 234.197 239.023 233.909 239.527C233.633 240.019 233.495 240.607 233.495 241.291C233.495 241.975 233.633 242.575 233.909 243.091C234.197 243.607 234.569 244.003 235.025 244.279C235.493 244.543 235.985 244.675 236.501 244.675C237.029 244.675 237.521 244.543 237.977 244.279C238.433 244.015 238.799 243.631 239.075 243.127C239.363 242.611 239.507 242.011 239.507 241.327ZM256.278 236.215C257.058 236.215 257.754 236.377 258.366 236.701C258.99 237.025 259.476 237.505 259.824 238.141C260.184 238.777 260.364 239.545 260.364 240.445V246.295H258.33V240.751C258.33 239.863 258.108 239.185 257.664 238.717C257.22 238.237 256.614 237.997 255.846 237.997C255.078 237.997 254.466 238.237 254.01 238.717C253.566 239.185 253.344 239.863 253.344 240.751V246.295H251.31V240.751C251.31 239.863 251.088 239.185 250.644 238.717C250.2 238.237 249.594 237.997 248.826 237.997C248.058 237.997 247.446 238.237 246.99 238.717C246.546 239.185 246.324 239.863 246.324 240.751V246.295H244.272V236.377H246.324V237.511C246.66 237.103 247.086 236.785 247.602 236.557C248.118 236.329 248.67 236.215 249.258 236.215C250.05 236.215 250.758 236.383 251.382 236.719C252.006 237.055 252.486 237.541 252.822 238.177C253.122 237.577 253.59 237.103 254.226 236.755C254.862 236.395 255.546 236.215 256.278 236.215ZM272.065 241.093C272.065 241.465 272.041 241.801 271.993 242.101H264.415C264.475 242.893 264.769 243.529 265.297 244.009C265.825 244.489 266.473 244.729 267.241 244.729C268.345 244.729 269.125 244.267 269.581 243.343H271.795C271.495 244.255 270.949 245.005 270.157 245.593C269.377 246.169 268.405 246.457 267.241 246.457C266.293 246.457 265.441 246.247 264.685 245.827C263.941 245.395 263.353 244.795 262.921 244.027C262.501 243.247 262.291 242.347 262.291 241.327C262.291 240.307 262.495 239.413 262.903 238.645C263.323 237.865 263.905 237.265 264.649 236.845C265.405 236.425 266.269 236.215 267.241 236.215C268.177 236.215 269.011 236.419 269.743 236.827C270.475 237.235 271.045 237.811 271.453 238.555C271.861 239.287 272.065 240.133 272.065 241.093ZM269.923 240.445C269.911 239.689 269.641 239.083 269.113 238.627C268.585 238.171 267.931 237.943 267.151 237.943C266.443 237.943 265.837 238.171 265.333 238.627C264.829 239.071 264.529 239.677 264.433 240.445H269.923ZM276.478 238.051V243.541C276.478 243.913 276.562 244.183 276.73 244.351C276.91 244.507 277.21 244.585 277.63 244.585H278.89V246.295H277.27C276.346 246.295 275.638 246.079 275.146 245.647C274.654 245.215 274.408 244.513 274.408 243.541V238.051H273.238V236.377H274.408V233.911H276.478V236.377H278.89V238.051H276.478ZM283.032 243.829L280.854 248.797H279.522L280.8 243.829H283.032ZM288.816 241.327C288.816 240.307 289.02 239.413 289.428 238.645C289.848 237.865 290.424 237.265 291.156 236.845C291.888 236.425 292.728 236.215 293.676 236.215C294.876 236.215 295.866 236.503 296.646 237.079C297.438 237.643 297.972 238.453 298.248 239.509H296.034C295.854 239.017 295.566 238.633 295.17 238.357C294.774 238.081 294.276 237.943 293.676 237.943C292.836 237.943 292.164 238.243 291.66 238.843C291.168 239.431 290.922 240.259 290.922 241.327C290.922 242.395 291.168 243.229 291.66 243.829C292.164 244.429 292.836 244.729 293.676 244.729C294.864 244.729 295.65 244.207 296.034 243.163H298.248C297.96 244.171 297.42 244.975 296.628 245.575C295.836 246.163 294.852 246.457 293.676 246.457C292.728 246.457 291.888 246.247 291.156 245.827C290.424 245.395 289.848 244.795 289.428 244.027C289.02 243.247 288.816 242.347 288.816 241.327ZM304.595 246.457C303.659 246.457 302.813 246.247 302.057 245.827C301.301 245.395 300.707 244.795 300.275 244.027C299.843 243.247 299.627 242.347 299.627 241.327C299.627 240.319 299.849 239.425 300.293 238.645C300.737 237.865 301.343 237.265 302.111 236.845C302.879 236.425 303.737 236.215 304.685 236.215C305.633 236.215 306.491 236.425 307.259 236.845C308.027 237.265 308.633 237.865 309.077 238.645C309.521 239.425 309.743 240.319 309.743 241.327C309.743 242.335 309.515 243.229 309.059 244.009C308.603 244.789 307.979 245.395 307.187 245.827C306.407 246.247 305.543 246.457 304.595 246.457ZM304.595 244.675C305.123 244.675 305.615 244.549 306.071 244.297C306.539 244.045 306.917 243.667 307.205 243.163C307.493 242.659 307.637 242.047 307.637 241.327C307.637 240.607 307.499 240.001 307.223 239.509C306.947 239.005 306.581 238.627 306.125 238.375C305.669 238.123 305.177 237.997 304.649 237.997C304.121 237.997 303.629 238.123 303.173 238.375C302.729 238.627 302.375 239.005 302.111 239.509C301.847 240.001 301.715 240.607 301.715 241.327C301.715 242.395 301.985 243.223 302.525 243.811C303.077 244.387 303.767 244.675 304.595 244.675ZM316.776 236.215C317.556 236.215 318.252 236.377 318.864 236.701C319.488 237.025 319.974 237.505 320.322 238.141C320.67 238.777 320.844 239.545 320.844 240.445V246.295H318.81V240.751C318.81 239.863 318.588 239.185 318.144 238.717C317.7 238.237 317.094 237.997 316.326 237.997C315.558 237.997 314.946 238.237 314.49 238.717C314.046 239.185 313.824 239.863 313.824 240.751V246.295H311.772V236.377H313.824V237.511C314.16 237.103 314.586 236.785 315.102 236.557C315.63 236.329 316.188 236.215 316.776 236.215ZM327.061 246.457C326.281 246.457 325.579 246.319 324.955 246.043C324.343 245.755 323.857 245.371 323.497 244.891C323.137 244.399 322.945 243.853 322.921 243.253H325.045C325.081 243.673 325.279 244.027 325.639 244.315C326.011 244.591 326.473 244.729 327.025 244.729C327.601 244.729 328.045 244.621 328.357 244.405C328.681 244.177 328.843 243.889 328.843 243.541C328.843 243.169 328.663 242.893 328.303 242.713C327.955 242.533 327.397 242.335 326.629 242.119C325.885 241.915 325.279 241.717 324.811 241.525C324.343 241.333 323.935 241.039 323.587 240.643C323.251 240.247 323.083 239.725 323.083 239.077C323.083 238.549 323.239 238.069 323.551 237.637C323.863 237.193 324.307 236.845 324.883 236.593C325.471 236.341 326.143 236.215 326.899 236.215C328.027 236.215 328.933 236.503 329.617 237.079C330.313 237.643 330.685 238.417 330.733 239.401H328.681C328.645 238.957 328.465 238.603 328.141 238.339C327.817 238.075 327.379 237.943 326.827 237.943C326.287 237.943 325.873 238.045 325.585 238.249C325.297 238.453 325.153 238.723 325.153 239.059C325.153 239.323 325.249 239.545 325.441 239.725C325.633 239.905 325.867 240.049 326.143 240.157C326.419 240.253 326.827 240.379 327.367 240.535C328.087 240.727 328.675 240.925 329.131 241.129C329.599 241.321 330.001 241.609 330.337 241.993C330.673 242.377 330.847 242.887 330.859 243.523C330.859 244.087 330.703 244.591 330.391 245.035C330.079 245.479 329.635 245.827 329.059 246.079C328.495 246.331 327.829 246.457 327.061 246.457ZM342.167 241.093C342.167 241.465 342.143 241.801 342.095 242.101H334.517C334.577 242.893 334.871 243.529 335.399 244.009C335.927 244.489 336.575 244.729 337.343 244.729C338.447 244.729 339.227 244.267 339.683 243.343H341.897C341.597 244.255 341.051 245.005 340.259 245.593C339.479 246.169 338.507 246.457 337.343 246.457C336.395 246.457 335.543 246.247 334.787 245.827C334.043 245.395 333.455 244.795 333.023 244.027C332.603 243.247 332.393 242.347 332.393 241.327C332.393 240.307 332.597 239.413 333.005 238.645C333.425 237.865 334.007 237.265 334.751 236.845C335.507 236.425 336.371 236.215 337.343 236.215C338.279 236.215 339.113 236.419 339.845 236.827C340.577 237.235 341.147 237.811 341.555 238.555C341.963 239.287 342.167 240.133 342.167 241.093ZM340.025 240.445C340.013 239.689 339.743 239.083 339.215 238.627C338.687 238.171 338.033 237.943 337.253 237.943C336.545 237.943 335.939 238.171 335.435 238.627C334.931 239.071 334.631 239.677 334.535 240.445H340.025ZM343.502 241.327C343.502 240.307 343.706 239.413 344.114 238.645C344.534 237.865 345.11 237.265 345.842 236.845C346.574 236.425 347.414 236.215 348.362 236.215C349.562 236.215 350.552 236.503 351.332 237.079C352.124 237.643 352.658 238.453 352.934 239.509H350.72C350.54 239.017 350.252 238.633 349.856 238.357C349.46 238.081 348.962 237.943 348.362 237.943C347.522 237.943 346.85 238.243 346.346 238.843C345.854 239.431 345.608 240.259 345.608 241.327C345.608 242.395 345.854 243.229 346.346 243.829C346.85 244.429 347.522 244.729 348.362 244.729C349.55 244.729 350.336 244.207 350.72 243.163H352.934C352.646 244.171 352.106 244.975 351.314 245.575C350.522 246.163 349.538 246.457 348.362 246.457C347.414 246.457 346.574 246.247 345.842 245.827C345.11 245.395 344.534 244.795 344.114 244.027C343.706 243.247 343.502 242.347 343.502 241.327ZM357.373 238.051V243.541C357.373 243.913 357.457 244.183 357.625 244.351C357.805 244.507 358.105 244.585 358.525 244.585H359.785V246.295H358.165C357.241 246.295 356.533 246.079 356.041 245.647C355.549 245.215 355.303 244.513 355.303 243.541V238.051H354.133V236.377H355.303V233.911H357.373V236.377H359.785V238.051H357.373ZM370.766 241.093C370.766 241.465 370.742 241.801 370.694 242.101H363.116C363.176 242.893 363.47 243.529 363.998 244.009C364.526 244.489 365.174 244.729 365.942 244.729C367.046 244.729 367.826 244.267 368.282 243.343H370.496C370.196 244.255 369.65 245.005 368.858 245.593C368.078 246.169 367.106 246.457 365.942 246.457C364.994 246.457 364.142 246.247 363.386 245.827C362.642 245.395 362.054 244.795 361.622 244.027C361.202 243.247 360.992 242.347 360.992 241.327C360.992 240.307 361.196 239.413 361.604 238.645C362.024 237.865 362.606 237.265 363.35 236.845C364.106 236.425 364.97 236.215 365.942 236.215C366.878 236.215 367.712 236.419 368.444 236.827C369.176 237.235 369.746 237.811 370.154 238.555C370.562 239.287 370.766 240.133 370.766 241.093ZM368.624 240.445C368.612 239.689 368.342 239.083 367.814 238.627C367.286 238.171 366.632 237.943 365.852 237.943C365.144 237.943 364.538 238.171 364.034 238.627C363.53 239.071 363.23 239.677 363.134 240.445H368.624ZM375.18 238.051V243.541C375.18 243.913 375.264 244.183 375.432 244.351C375.612 244.507 375.912 244.585 376.332 244.585H377.592V246.295H375.972C375.048 246.295 374.34 246.079 373.848 245.647C373.356 245.215 373.11 244.513 373.11 243.541V238.051H371.94V236.377H373.11V233.911H375.18V236.377H377.592V238.051H375.18ZM388.465 236.377V246.295H386.413V245.125C386.089 245.533 385.663 245.857 385.135 246.097C384.619 246.325 384.067 246.439 383.479 246.439C382.699 246.439 381.997 246.277 381.373 245.953C380.761 245.629 380.275 245.149 379.915 244.513C379.567 243.877 379.393 243.109 379.393 242.209V236.377H381.427V241.903C381.427 242.791 381.649 243.475 382.093 243.955C382.537 244.423 383.143 244.657 383.911 244.657C384.679 244.657 385.285 244.423 385.729 243.955C386.185 243.475 386.413 242.791 386.413 241.903V236.377H388.465ZM393.224 237.817C393.524 237.313 393.92 236.923 394.412 236.647C394.916 236.359 395.51 236.215 396.194 236.215V238.339H395.672C394.868 238.339 394.256 238.543 393.836 238.951C393.428 239.359 393.224 240.067 393.224 241.075V246.295H391.172V236.377H393.224V237.817ZM402.072 241.291C402.072 240.295 402.276 239.413 402.684 238.645C403.104 237.877 403.668 237.283 404.376 236.863C405.096 236.431 405.888 236.215 406.752 236.215C407.532 236.215 408.21 236.371 408.786 236.683C409.374 236.983 409.842 237.361 410.19 237.817V236.377H412.26V246.295H410.19V244.819C409.842 245.287 409.368 245.677 408.768 245.989C408.168 246.301 407.484 246.457 406.716 246.457C405.864 246.457 405.084 246.241 404.376 245.809C403.668 245.365 403.104 244.753 402.684 243.973C402.276 243.181 402.072 242.287 402.072 241.291ZM410.19 241.327C410.19 240.643 410.046 240.049 409.758 239.545C409.482 239.041 409.116 238.657 408.66 238.393C408.204 238.129 407.712 237.997 407.184 237.997C406.656 237.997 406.164 238.129 405.708 238.393C405.252 238.645 404.88 239.023 404.592 239.527C404.316 240.019 404.178 240.607 404.178 241.291C404.178 241.975 404.316 242.575 404.592 243.091C404.88 243.607 405.252 244.003 405.708 244.279C406.176 244.543 406.668 244.675 407.184 244.675C407.712 244.675 408.204 244.543 408.66 244.279C409.116 244.015 409.482 243.631 409.758 243.127C410.046 242.611 410.19 242.011 410.19 241.327ZM414.271 241.291C414.271 240.295 414.475 239.413 414.883 238.645C415.303 237.877 415.867 237.283 416.575 236.863C417.295 236.431 418.093 236.215 418.969 236.215C419.617 236.215 420.253 236.359 420.877 236.647C421.513 236.923 422.017 237.295 422.389 237.763V232.975H424.459V246.295H422.389V244.801C422.053 245.281 421.585 245.677 420.985 245.989C420.397 246.301 419.719 246.457 418.951 246.457C418.087 246.457 417.295 246.241 416.575 245.809C415.867 245.365 415.303 244.753 414.883 243.973C414.475 243.181 414.271 242.287 414.271 241.291ZM422.389 241.327C422.389 240.643 422.245 240.049 421.957 239.545C421.681 239.041 421.315 238.657 420.859 238.393C420.403 238.129 419.911 237.997 419.383 237.997C418.855 237.997 418.363 238.129 417.907 238.393C417.451 238.645 417.079 239.023 416.791 239.527C416.515 240.019 416.377 240.607 416.377 241.291C416.377 241.975 416.515 242.575 416.791 243.091C417.079 243.607 417.451 244.003 417.907 244.279C418.375 244.543 418.867 244.675 419.383 244.675C419.911 244.675 420.403 244.543 420.859 244.279C421.315 244.015 421.681 243.631 421.957 243.127C422.245 242.611 422.389 242.011 422.389 241.327ZM428.199 235.063C427.827 235.063 427.515 234.937 427.263 234.685C427.011 234.433 426.885 234.121 426.885 233.749C426.885 233.377 427.011 233.065 427.263 232.813C427.515 232.561 427.827 232.435 428.199 232.435C428.559 232.435 428.865 232.561 429.117 232.813C429.369 233.065 429.495 233.377 429.495 233.749C429.495 234.121 429.369 234.433 429.117 234.685C428.865 234.937 428.559 235.063 428.199 235.063ZM429.207 236.377V246.295H427.155V236.377H429.207ZM433.953 237.835C434.301 237.379 434.775 236.995 435.375 236.683C435.975 236.371 436.653 236.215 437.409 236.215C438.273 236.215 439.059 236.431 439.767 236.863C440.487 237.283 441.051 237.877 441.459 238.645C441.867 239.413 442.071 240.295 442.071 241.291C442.071 242.287 441.867 243.181 441.459 243.973C441.051 244.753 440.487 245.365 439.767 245.809C439.059 246.241 438.273 246.457 437.409 246.457C436.653 246.457 435.981 246.307 435.393 246.007C434.805 245.695 434.325 245.311 433.953 244.855V251.011H431.901V236.377H433.953V237.835ZM439.983 241.291C439.983 240.607 439.839 240.019 439.551 239.527C439.275 239.023 438.903 238.645 438.435 238.393C437.979 238.129 437.487 237.997 436.959 237.997C436.443 237.997 435.951 238.129 435.483 238.393C435.027 238.657 434.655 239.041 434.367 239.545C434.091 240.049 433.953 240.643 433.953 241.327C433.953 242.011 434.091 242.611 434.367 243.127C434.655 243.631 435.027 244.015 435.483 244.279C435.951 244.543 436.443 244.675 436.959 244.675C437.487 244.675 437.979 244.543 438.435 244.279C438.903 244.003 439.275 243.607 439.551 243.091C439.839 242.575 439.983 241.975 439.983 241.291ZM445.144 235.063C444.772 235.063 444.46 234.937 444.208 234.685C443.956 234.433 443.83 234.121 443.83 233.749C443.83 233.377 443.956 233.065 444.208 232.813C444.46 232.561 444.772 232.435 445.144 232.435C445.504 232.435 445.81 232.561 446.062 232.813C446.314 233.065 446.44 233.377 446.44 233.749C446.44 234.121 446.314 234.433 446.062 234.685C445.81 234.937 445.504 235.063 445.144 235.063ZM446.152 236.377V246.295H444.1V236.377H446.152ZM452.446 246.457C451.666 246.457 450.964 246.319 450.34 246.043C449.728 245.755 449.242 245.371 448.882 244.891C448.522 244.399 448.33 243.853 448.306 243.253H450.43C450.466 243.673 450.664 244.027 451.024 244.315C451.396 244.591 451.858 244.729 452.41 244.729C452.986 244.729 453.43 244.621 453.742 244.405C454.066 244.177 454.228 243.889 454.228 243.541C454.228 243.169 454.048 242.893 453.688 242.713C453.34 242.533 452.782 242.335 452.014 242.119C451.27 241.915 450.664 241.717 450.196 241.525C449.728 241.333 449.32 241.039 448.972 240.643C448.636 240.247 448.468 239.725 448.468 239.077C448.468 238.549 448.624 238.069 448.936 237.637C449.248 237.193 449.692 236.845 450.268 236.593C450.856 236.341 451.528 236.215 452.284 236.215C453.412 236.215 454.318 236.503 455.002 237.079C455.698 237.643 456.07 238.417 456.118 239.401H454.066C454.03 238.957 453.85 238.603 453.526 238.339C453.202 238.075 452.764 237.943 452.212 237.943C451.672 237.943 451.258 238.045 450.97 238.249C450.682 238.453 450.538 238.723 450.538 239.059C450.538 239.323 450.634 239.545 450.826 239.725C451.018 239.905 451.252 240.049 451.528 240.157C451.804 240.253 452.212 240.379 452.752 240.535C453.472 240.727 454.06 240.925 454.516 241.129C454.984 241.321 455.386 241.609 455.722 241.993C456.058 242.377 456.232 242.887 456.244 243.523C456.244 244.087 456.088 244.591 455.776 245.035C455.464 245.479 455.02 245.827 454.444 246.079C453.88 246.331 453.214 246.457 452.446 246.457ZM457.777 241.327C457.777 240.307 457.981 239.413 458.389 238.645C458.809 237.865 459.385 237.265 460.117 236.845C460.849 236.425 461.689 236.215 462.637 236.215C463.837 236.215 464.827 236.503 465.607 237.079C466.399 237.643 466.933 238.453 467.209 239.509H464.995C464.815 239.017 464.527 238.633 464.131 238.357C463.735 238.081 463.237 237.943 462.637 237.943C461.797 237.943 461.125 238.243 460.621 238.843C460.129 239.431 459.883 240.259 459.883 241.327C459.883 242.395 460.129 243.229 460.621 243.829C461.125 244.429 461.797 244.729 462.637 244.729C463.825 244.729 464.611 244.207 464.995 243.163H467.209C466.921 244.171 466.381 244.975 465.589 245.575C464.797 246.163 463.813 246.457 462.637 246.457C461.689 246.457 460.849 246.247 460.117 245.827C459.385 245.395 458.809 244.795 458.389 244.027C457.981 243.247 457.777 242.347 457.777 241.327ZM470.298 235.063C469.926 235.063 469.614 234.937 469.362 234.685C469.11 234.433 468.984 234.121 468.984 233.749C468.984 233.377 469.11 233.065 469.362 232.813C469.614 232.561 469.926 232.435 470.298 232.435C470.658 232.435 470.964 232.561 471.216 232.813C471.468 233.065 471.594 233.377 471.594 233.749C471.594 234.121 471.468 234.433 471.216 234.685C470.964 234.937 470.658 235.063 470.298 235.063ZM471.306 236.377V246.295H469.254V236.377H471.306ZM479.004 236.215C479.784 236.215 480.48 236.377 481.092 236.701C481.716 237.025 482.202 237.505 482.55 238.141C482.898 238.777 483.072 239.545 483.072 240.445V246.295H481.038V240.751C481.038 239.863 480.816 239.185 480.372 238.717C479.928 238.237 479.322 237.997 478.554 237.997C477.786 237.997 477.174 238.237 476.718 238.717C476.274 239.185 476.052 239.863 476.052 240.751V246.295H474V236.377H476.052V237.511C476.388 237.103 476.814 236.785 477.33 236.557C477.858 236.329 478.416 236.215 479.004 236.215ZM489.686 236.215C490.454 236.215 491.132 236.371 491.72 236.683C492.32 236.983 492.788 237.361 493.124 237.817V236.377H495.194V246.457C495.194 247.369 495.002 248.179 494.618 248.887C494.234 249.607 493.676 250.171 492.944 250.579C492.224 250.987 491.36 251.191 490.352 251.191C489.008 251.191 487.892 250.873 487.004 250.237C486.116 249.613 485.612 248.761 485.492 247.681H487.526C487.682 248.197 488.012 248.611 488.516 248.923C489.032 249.247 489.644 249.409 490.352 249.409C491.18 249.409 491.846 249.157 492.35 248.653C492.866 248.149 493.124 247.417 493.124 246.457V244.801C492.776 245.269 492.302 245.665 491.702 245.989C491.114 246.301 490.442 246.457 489.686 246.457C488.822 246.457 488.03 246.241 487.31 245.809C486.602 245.365 486.038 244.753 485.618 243.973C485.21 243.181 485.006 242.287 485.006 241.291C485.006 240.295 485.21 239.413 485.618 238.645C486.038 237.877 486.602 237.283 487.31 236.863C488.03 236.431 488.822 236.215 489.686 236.215ZM493.124 241.327C493.124 240.643 492.98 240.049 492.692 239.545C492.416 239.041 492.05 238.657 491.594 238.393C491.138 238.129 490.646 237.997 490.118 237.997C489.59 237.997 489.098 238.129 488.642 238.393C488.186 238.645 487.814 239.023 487.526 239.527C487.25 240.019 487.112 240.607 487.112 241.291C487.112 241.975 487.25 242.575 487.526 243.091C487.814 243.607 488.186 244.003 488.642 244.279C489.11 244.543 489.602 244.675 490.118 244.675C490.646 244.675 491.138 244.543 491.594 244.279C492.05 244.015 492.416 243.631 492.692 243.127C492.98 242.611 493.124 242.011 493.124 241.327ZM511.655 241.093C511.655 241.465 511.631 241.801 511.583 242.101H504.005C504.065 242.893 504.359 243.529 504.887 244.009C505.415 244.489 506.063 244.729 506.831 244.729C507.935 244.729 508.715 244.267 509.171 243.343H511.385C511.085 244.255 510.539 245.005 509.747 245.593C508.967 246.169 507.995 246.457 506.831 246.457C505.883 246.457 505.031 246.247 504.275 245.827C503.531 245.395 502.943 244.795 502.511 244.027C502.091 243.247 501.881 242.347 501.881 241.327C501.881 240.307 502.085 239.413 502.493 238.645C502.913 237.865 503.495 237.265 504.239 236.845C504.995 236.425 505.859 236.215 506.831 236.215C507.767 236.215 508.601 236.419 509.333 236.827C510.065 237.235 510.635 237.811 511.043 238.555C511.451 239.287 511.655 240.133 511.655 241.093ZM509.513 240.445C509.501 239.689 509.231 239.083 508.703 238.627C508.175 238.171 507.521 237.943 506.741 237.943C506.033 237.943 505.427 238.171 504.923 238.627C504.419 239.071 504.119 239.677 504.023 240.445H509.513ZM515.726 232.975V246.295H513.674V232.975H515.726ZM519.464 235.063C519.092 235.063 518.78 234.937 518.528 234.685C518.276 234.433 518.15 234.121 518.15 233.749C518.15 233.377 518.276 233.065 518.528 232.813C518.78 232.561 519.092 232.435 519.464 232.435C519.824 232.435 520.13 232.561 520.382 232.813C520.634 233.065 520.76 233.377 520.76 233.749C520.76 234.121 520.634 234.433 520.382 234.685C520.13 234.937 519.824 235.063 519.464 235.063ZM520.472 236.377V246.295H518.42V236.377H520.472ZM525.56 238.051V243.541C525.56 243.913 525.644 244.183 525.812 244.351C525.992 244.507 526.292 244.585 526.712 244.585H527.972V246.295H526.352C525.428 246.295 524.72 246.079 524.228 245.647C523.736 245.215 523.49 244.513 523.49 243.541V238.051H522.32V236.377H523.49V233.911H525.56V236.377H527.972V238.051H525.56ZM530.692 246.421C530.32 246.421 530.008 246.295 529.756 246.043C529.504 245.791 529.378 245.479 529.378 245.107C529.378 244.735 529.504 244.423 529.756 244.171C530.008 243.919 530.32 243.793 530.692 243.793C531.052 243.793 531.358 243.919 531.61 244.171C531.862 244.423 531.988 244.735 531.988 245.107C531.988 245.479 531.862 245.791 531.61 246.043C531.358 246.295 531.052 246.421 530.692 246.421ZM540.915 233.785V241.759C540.915 242.707 541.161 243.421 541.653 243.901C542.157 244.381 542.853 244.621 543.741 244.621C544.641 244.621 545.337 244.381 545.829 243.901C546.333 243.421 546.585 242.707 546.585 241.759V233.785H548.637V241.723C548.637 242.743 548.415 243.607 547.971 244.315C547.527 245.023 546.933 245.551 546.189 245.899C545.445 246.247 544.623 246.421 543.723 246.421C542.823 246.421 542.001 246.247 541.257 245.899C540.525 245.551 539.943 245.023 539.511 244.315C539.079 243.607 538.863 242.743 538.863 241.723V233.785H540.915ZM553.703 238.051V243.541C553.703 243.913 553.787 244.183 553.955 244.351C554.135 244.507 554.435 244.585 554.855 244.585H556.115V246.295H554.495C553.571 246.295 552.863 246.079 552.371 245.647C551.879 245.215 551.633 244.513 551.633 243.541V238.051H550.463V236.377H551.633V233.911H553.703V236.377H556.115V238.051H553.703ZM41.44 265.093C41.44 265.465 41.416 265.801 41.368 266.101H33.79C33.85 266.893 34.144 267.529 34.672 268.009C35.2 268.489 35.848 268.729 36.616 268.729C37.72 268.729 38.5 268.267 38.956 267.343H41.17C40.87 268.255 40.324 269.005 39.532 269.593C38.752 270.169 37.78 270.457 36.616 270.457C35.668 270.457 34.816 270.247 34.06 269.827C33.316 269.395 32.728 268.795 32.296 268.027C31.876 267.247 31.666 266.347 31.666 265.327C31.666 264.307 31.87 263.413 32.278 262.645C32.698 261.865 33.28 261.265 34.024 260.845C34.78 260.425 35.644 260.215 36.616 260.215C37.552 260.215 38.386 260.419 39.118 260.827C39.85 261.235 40.42 261.811 40.828 262.555C41.236 263.287 41.44 264.133 41.44 265.093ZM39.298 264.445C39.286 263.689 39.016 263.083 38.488 262.627C37.96 262.171 37.306 261.943 36.526 261.943C35.818 261.943 35.212 262.171 34.708 262.627C34.204 263.071 33.904 263.677 33.808 264.445H39.298ZM45.5114 256.975V270.295H43.4594V256.975H45.5114ZM49.2495 259.063C48.8775 259.063 48.5655 258.937 48.3135 258.685C48.0615 258.433 47.9355 258.121 47.9355 257.749C47.9355 257.377 48.0615 257.065 48.3135 256.813C48.5655 256.561 48.8775 256.435 49.2495 256.435C49.6095 256.435 49.9155 256.561 50.1675 256.813C50.4195 257.065 50.5455 257.377 50.5455 257.749C50.5455 258.121 50.4195 258.433 50.1675 258.685C49.9155 258.937 49.6095 259.063 49.2495 259.063ZM50.2575 260.377V270.295H48.2055V260.377H50.2575ZM55.3456 262.051V267.541C55.3456 267.913 55.4296 268.183 55.5976 268.351C55.7776 268.507 56.0776 268.585 56.4976 268.585H57.7576V270.295H56.1376C55.2136 270.295 54.5056 270.079 54.0136 269.647C53.5216 269.215 53.2756 268.513 53.2756 267.541V262.051H52.1056V260.377H53.2756V257.911H55.3456V260.377H57.7576V262.051H55.3456ZM66.7186 262.051V267.541C66.7186 267.913 66.8026 268.183 66.9706 268.351C67.1506 268.507 67.4506 268.585 67.8706 268.585H69.1306V270.295H67.5106C66.5866 270.295 65.8786 270.079 65.3866 269.647C64.8946 269.215 64.6486 268.513 64.6486 267.541V262.051H63.4786V260.377H64.6486V257.911H66.7186V260.377H69.1306V262.051H66.7186ZM80.1119 265.093C80.1119 265.465 80.0879 265.801 80.0399 266.101H72.4619C72.5219 266.893 72.8159 267.529 73.3439 268.009C73.8719 268.489 74.5199 268.729 75.2879 268.729C76.3919 268.729 77.1719 268.267 77.6279 267.343H79.8419C79.5419 268.255 78.9959 269.005 78.2039 269.593C77.4239 270.169 76.4519 270.457 75.2879 270.457C74.3399 270.457 73.4879 270.247 72.7319 269.827C71.9879 269.395 71.3999 268.795 70.9679 268.027C70.5479 267.247 70.3379 266.347 70.3379 265.327C70.3379 264.307 70.5419 263.413 70.9499 262.645C71.3699 261.865 71.9519 261.265 72.6959 260.845C73.4519 260.425 74.3159 260.215 75.2879 260.215C76.2239 260.215 77.0579 260.419 77.7899 260.827C78.5219 261.235 79.0919 261.811 79.4999 262.555C79.9079 263.287 80.1119 264.133 80.1119 265.093ZM77.9699 264.445C77.9579 263.689 77.6879 263.083 77.1599 262.627C76.6319 262.171 75.9779 261.943 75.1979 261.943C74.4899 261.943 73.8839 262.171 73.3799 262.627C72.8759 263.071 72.5759 263.677 72.4799 264.445H77.9699ZM84.1833 256.975V270.295H82.1313V256.975H84.1833ZM88.9293 256.975V270.295H86.8773V256.975H88.9293ZM100.605 260.377V270.295H98.5534V269.125C98.2294 269.533 97.8034 269.857 97.2754 270.097C96.7594 270.325 96.2074 270.439 95.6194 270.439C94.8394 270.439 94.1374 270.277 93.5134 269.953C92.9014 269.629 92.4154 269.149 92.0554 268.513C91.7074 267.877 91.5334 267.109 91.5334 266.209V260.377H93.5674V265.903C93.5674 266.791 93.7894 267.475 94.2334 267.955C94.6774 268.423 95.2834 268.657 96.0514 268.657C96.8194 268.657 97.4254 268.423 97.8694 267.955C98.3254 267.475 98.5534 266.791 98.5534 265.903V260.377H100.605ZM106.913 270.457C106.133 270.457 105.431 270.319 104.807 270.043C104.195 269.755 103.709 269.371 103.349 268.891C102.989 268.399 102.797 267.853 102.773 267.253H104.897C104.933 267.673 105.131 268.027 105.491 268.315C105.863 268.591 106.325 268.729 106.877 268.729C107.453 268.729 107.897 268.621 108.209 268.405C108.533 268.177 108.695 267.889 108.695 267.541C108.695 267.169 108.515 266.893 108.155 266.713C107.807 266.533 107.249 266.335 106.481 266.119C105.737 265.915 105.131 265.717 104.663 265.525C104.195 265.333 103.787 265.039 103.439 264.643C103.103 264.247 102.935 263.725 102.935 263.077C102.935 262.549 103.091 262.069 103.403 261.637C103.715 261.193 104.159 260.845 104.735 260.593C105.323 260.341 105.995 260.215 106.751 260.215C107.879 260.215 108.785 260.503 109.469 261.079C110.165 261.643 110.537 262.417 110.585 263.401H108.533C108.497 262.957 108.317 262.603 107.993 262.339C107.669 262.075 107.231 261.943 106.679 261.943C106.139 261.943 105.725 262.045 105.437 262.249C105.149 262.453 105.005 262.723 105.005 263.059C105.005 263.323 105.101 263.545 105.293 263.725C105.485 263.905 105.719 264.049 105.995 264.157C106.271 264.253 106.679 264.379 107.219 264.535C107.939 264.727 108.527 264.925 108.983 265.129C109.451 265.321 109.853 265.609 110.189 265.993C110.525 266.377 110.699 266.887 110.711 267.523C110.711 268.087 110.555 268.591 110.243 269.035C109.931 269.479 109.487 269.827 108.911 270.079C108.347 270.331 107.681 270.457 106.913 270.457ZM115.178 267.829L113 272.797H111.668L112.946 267.829H115.178ZM123.699 256.975V270.295H121.647V256.975H123.699ZM135.375 260.377V270.295H133.323V269.125C132.999 269.533 132.573 269.857 132.045 270.097C131.529 270.325 130.977 270.439 130.389 270.439C129.609 270.439 128.907 270.277 128.283 269.953C127.671 269.629 127.185 269.149 126.825 268.513C126.477 267.877 126.303 267.109 126.303 266.209V260.377H128.337V265.903C128.337 266.791 128.559 267.475 129.003 267.955C129.447 268.423 130.053 268.657 130.821 268.657C131.589 268.657 132.195 268.423 132.639 267.955C133.095 267.475 133.323 266.791 133.323 265.903V260.377H135.375ZM137.398 265.327C137.398 264.307 137.602 263.413 138.01 262.645C138.43 261.865 139.006 261.265 139.738 260.845C140.47 260.425 141.31 260.215 142.258 260.215C143.458 260.215 144.448 260.503 145.228 261.079C146.02 261.643 146.554 262.453 146.83 263.509H144.616C144.436 263.017 144.148 262.633 143.752 262.357C143.356 262.081 142.858 261.943 142.258 261.943C141.418 261.943 140.746 262.243 140.242 262.843C139.75 263.431 139.504 264.259 139.504 265.327C139.504 266.395 139.75 267.229 140.242 267.829C140.746 268.429 141.418 268.729 142.258 268.729C143.446 268.729 144.232 268.207 144.616 267.163H146.83C146.542 268.171 146.002 268.975 145.21 269.575C144.418 270.163 143.434 270.457 142.258 270.457C141.31 270.457 140.47 270.247 139.738 269.827C139.006 269.395 138.43 268.795 138.01 268.027C137.602 267.247 137.398 266.347 137.398 265.327ZM151.269 262.051V267.541C151.269 267.913 151.353 268.183 151.521 268.351C151.701 268.507 152.001 268.585 152.421 268.585H153.681V270.295H152.061C151.137 270.295 150.429 270.079 149.937 269.647C149.445 269.215 149.199 268.513 149.199 267.541V262.051H148.029V260.377H149.199V257.911H151.269V260.377H153.681V262.051H151.269ZM164.555 260.377V270.295H162.503V269.125C162.179 269.533 161.753 269.857 161.225 270.097C160.709 270.325 160.157 270.439 159.569 270.439C158.789 270.439 158.087 270.277 157.463 269.953C156.851 269.629 156.365 269.149 156.005 268.513C155.657 267.877 155.483 267.109 155.483 266.209V260.377H157.517V265.903C157.517 266.791 157.739 267.475 158.183 267.955C158.627 268.423 159.233 268.657 160.001 268.657C160.769 268.657 161.375 268.423 161.819 267.955C162.275 267.475 162.503 266.791 162.503 265.903V260.377H164.555ZM170.862 270.457C170.082 270.457 169.38 270.319 168.756 270.043C168.144 269.755 167.658 269.371 167.298 268.891C166.938 268.399 166.746 267.853 166.722 267.253H168.846C168.882 267.673 169.08 268.027 169.44 268.315C169.812 268.591 170.274 268.729 170.826 268.729C171.402 268.729 171.846 268.621 172.158 268.405C172.482 268.177 172.644 267.889 172.644 267.541C172.644 267.169 172.464 266.893 172.104 266.713C171.756 266.533 171.198 266.335 170.43 266.119C169.686 265.915 169.08 265.717 168.612 265.525C168.144 265.333 167.736 265.039 167.388 264.643C167.052 264.247 166.884 263.725 166.884 263.077C166.884 262.549 167.04 262.069 167.352 261.637C167.664 261.193 168.108 260.845 168.684 260.593C169.272 260.341 169.944 260.215 170.7 260.215C171.828 260.215 172.734 260.503 173.418 261.079C174.114 261.643 174.486 262.417 174.534 263.401H172.482C172.446 262.957 172.266 262.603 171.942 262.339C171.618 262.075 171.18 261.943 170.628 261.943C170.088 261.943 169.674 262.045 169.386 262.249C169.098 262.453 168.954 262.723 168.954 263.059C168.954 263.323 169.05 263.545 169.242 263.725C169.434 263.905 169.668 264.049 169.944 264.157C170.22 264.253 170.628 264.379 171.168 264.535C171.888 264.727 172.476 264.925 172.932 265.129C173.4 265.321 173.802 265.609 174.138 265.993C174.474 266.377 174.648 266.887 174.66 267.523C174.66 268.087 174.504 268.591 174.192 269.035C173.88 269.479 173.436 269.827 172.86 270.079C172.296 270.331 171.63 270.457 170.862 270.457ZM186.557 260.215C187.337 260.215 188.033 260.377 188.645 260.701C189.269 261.025 189.755 261.505 190.103 262.141C190.451 262.777 190.625 263.545 190.625 264.445V270.295H188.591V264.751C188.591 263.863 188.369 263.185 187.925 262.717C187.481 262.237 186.875 261.997 186.107 261.997C185.339 261.997 184.727 262.237 184.271 262.717C183.827 263.185 183.605 263.863 183.605 264.751V270.295H181.553V260.377H183.605V261.511C183.941 261.103 184.367 260.785 184.883 260.557C185.411 260.329 185.969 260.215 186.557 260.215ZM202.333 265.093C202.333 265.465 202.309 265.801 202.261 266.101H194.683C194.743 266.893 195.037 267.529 195.565 268.009C196.093 268.489 196.741 268.729 197.509 268.729C198.613 268.729 199.393 268.267 199.849 267.343H202.063C201.763 268.255 201.217 269.005 200.425 269.593C199.645 270.169 198.673 270.457 197.509 270.457C196.561 270.457 195.709 270.247 194.953 269.827C194.209 269.395 193.621 268.795 193.189 268.027C192.769 267.247 192.559 266.347 192.559 265.327C192.559 264.307 192.763 263.413 193.171 262.645C193.591 261.865 194.173 261.265 194.917 260.845C195.673 260.425 196.537 260.215 197.509 260.215C198.445 260.215 199.279 260.419 200.011 260.827C200.743 261.235 201.313 261.811 201.721 262.555C202.129 263.287 202.333 264.133 202.333 265.093ZM200.191 264.445C200.179 263.689 199.909 263.083 199.381 262.627C198.853 262.171 198.199 261.943 197.419 261.943C196.711 261.943 196.105 262.171 195.601 262.627C195.097 263.071 194.797 263.677 194.701 264.445H200.191ZM203.668 265.327C203.668 264.307 203.872 263.413 204.28 262.645C204.7 261.865 205.276 261.265 206.008 260.845C206.74 260.425 207.58 260.215 208.528 260.215C209.728 260.215 210.718 260.503 211.498 261.079C212.29 261.643 212.824 262.453 213.1 263.509H210.886C210.706 263.017 210.418 262.633 210.022 262.357C209.626 262.081 209.128 261.943 208.528 261.943C207.688 261.943 207.016 262.243 206.512 262.843C206.02 263.431 205.774 264.259 205.774 265.327C205.774 266.395 206.02 267.229 206.512 267.829C207.016 268.429 207.688 268.729 208.528 268.729C209.716 268.729 210.502 268.207 210.886 267.163H213.1C212.812 268.171 212.272 268.975 211.48 269.575C210.688 270.163 209.704 270.457 208.528 270.457C207.58 270.457 206.74 270.247 206.008 269.827C205.276 269.395 204.7 268.795 204.28 268.027C203.872 267.247 203.668 266.347 203.668 265.327ZM228.803 260.377V270.295H226.751V269.125C226.427 269.533 226.001 269.857 225.473 270.097C224.957 270.325 224.405 270.439 223.817 270.439C223.037 270.439 222.335 270.277 221.711 269.953C221.099 269.629 220.613 269.149 220.253 268.513C219.905 267.877 219.731 267.109 219.731 266.209V260.377H221.765V265.903C221.765 266.791 221.987 267.475 222.431 267.955C222.875 268.423 223.481 268.657 224.249 268.657C225.017 268.657 225.623 268.423 226.067 267.955C226.523 267.475 226.751 266.791 226.751 265.903V260.377H228.803ZM233.562 256.975V270.295H231.51V256.975H233.562ZM238.308 256.975V270.295H236.256V256.975H238.308ZM240.318 265.291C240.318 264.295 240.522 263.413 240.93 262.645C241.35 261.877 241.914 261.283 242.622 260.863C243.342 260.431 244.134 260.215 244.998 260.215C245.778 260.215 246.456 260.371 247.032 260.683C247.62 260.983 248.088 261.361 248.436 261.817V260.377H250.506V270.295H248.436V268.819C248.088 269.287 247.614 269.677 247.014 269.989C246.414 270.301 245.73 270.457 244.962 270.457C244.11 270.457 243.33 270.241 242.622 269.809C241.914 269.365 241.35 268.753 240.93 267.973C240.522 267.181 240.318 266.287 240.318 265.291ZM248.436 265.327C248.436 264.643 248.292 264.049 248.004 263.545C247.728 263.041 247.362 262.657 246.906 262.393C246.45 262.129 245.958 261.997 245.43 261.997C244.902 261.997 244.41 262.129 243.954 262.393C243.498 262.645 243.126 263.023 242.838 263.527C242.562 264.019 242.424 264.607 242.424 265.291C242.424 265.975 242.562 266.575 242.838 267.091C243.126 267.607 243.498 268.003 243.954 268.279C244.422 268.543 244.914 268.675 245.43 268.675C245.958 268.675 246.45 268.543 246.906 268.279C247.362 268.015 247.728 267.631 248.004 267.127C248.292 266.611 248.436 266.011 248.436 265.327ZM265.208 260.215C265.988 260.215 266.684 260.377 267.296 260.701C267.92 261.025 268.406 261.505 268.754 262.141C269.114 262.777 269.294 263.545 269.294 264.445V270.295H267.26V264.751C267.26 263.863 267.038 263.185 266.594 262.717C266.15 262.237 265.544 261.997 264.776 261.997C264.008 261.997 263.396 262.237 262.94 262.717C262.496 263.185 262.274 263.863 262.274 264.751V270.295H260.24V264.751C260.24 263.863 260.018 263.185 259.574 262.717C259.13 262.237 258.524 261.997 257.756 261.997C256.988 261.997 256.376 262.237 255.92 262.717C255.476 263.185 255.254 263.863 255.254 264.751V270.295H253.202V260.377H255.254V261.511C255.59 261.103 256.016 260.785 256.532 260.557C257.048 260.329 257.6 260.215 258.188 260.215C258.98 260.215 259.688 260.383 260.312 260.719C260.936 261.055 261.416 261.541 261.752 262.177C262.052 261.577 262.52 261.103 263.156 260.755C263.792 260.395 264.476 260.215 265.208 260.215ZM271.221 265.327C271.221 264.307 271.425 263.413 271.833 262.645C272.253 261.865 272.829 261.265 273.561 260.845C274.293 260.425 275.133 260.215 276.081 260.215C277.281 260.215 278.271 260.503 279.051 261.079C279.843 261.643 280.377 262.453 280.653 263.509H278.439C278.259 263.017 277.971 262.633 277.575 262.357C277.179 262.081 276.681 261.943 276.081 261.943C275.241 261.943 274.569 262.243 274.065 262.843C273.573 263.431 273.327 264.259 273.327 265.327C273.327 266.395 273.573 267.229 274.065 267.829C274.569 268.429 275.241 268.729 276.081 268.729C277.269 268.729 278.055 268.207 278.439 267.163H280.653C280.365 268.171 279.825 268.975 279.033 269.575C278.241 270.163 277.257 270.457 276.081 270.457C275.133 270.457 274.293 270.247 273.561 269.827C272.829 269.395 272.253 268.795 271.833 268.027C271.425 267.247 271.221 266.347 271.221 265.327ZM287 270.457C286.064 270.457 285.218 270.247 284.462 269.827C283.706 269.395 283.112 268.795 282.68 268.027C282.248 267.247 282.032 266.347 282.032 265.327C282.032 264.319 282.254 263.425 282.698 262.645C283.142 261.865 283.748 261.265 284.516 260.845C285.284 260.425 286.142 260.215 287.09 260.215C288.038 260.215 288.896 260.425 289.664 260.845C290.432 261.265 291.038 261.865 291.482 262.645C291.926 263.425 292.148 264.319 292.148 265.327C292.148 266.335 291.92 267.229 291.464 268.009C291.008 268.789 290.384 269.395 289.592 269.827C288.812 270.247 287.948 270.457 287 270.457ZM287 268.675C287.528 268.675 288.02 268.549 288.476 268.297C288.944 268.045 289.322 267.667 289.61 267.163C289.898 266.659 290.042 266.047 290.042 265.327C290.042 264.607 289.904 264.001 289.628 263.509C289.352 263.005 288.986 262.627 288.53 262.375C288.074 262.123 287.582 261.997 287.054 261.997C286.526 261.997 286.034 262.123 285.578 262.375C285.134 262.627 284.78 263.005 284.516 263.509C284.252 264.001 284.12 264.607 284.12 265.327C284.12 266.395 284.39 267.223 284.93 267.811C285.482 268.387 286.172 268.675 287 268.675ZM296.228 261.817C296.528 261.313 296.924 260.923 297.416 260.647C297.92 260.359 298.514 260.215 299.198 260.215V262.339H298.676C297.872 262.339 297.26 262.543 296.84 262.951C296.432 263.359 296.228 264.067 296.228 265.075V270.295H294.176V260.377H296.228V261.817ZM303.136 261.835C303.484 261.379 303.958 260.995 304.558 260.683C305.158 260.371 305.836 260.215 306.592 260.215C307.456 260.215 308.242 260.431 308.95 260.863C309.67 261.283 310.234 261.877 310.642 262.645C311.05 263.413 311.254 264.295 311.254 265.291C311.254 266.287 311.05 267.181 310.642 267.973C310.234 268.753 309.67 269.365 308.95 269.809C308.242 270.241 307.456 270.457 306.592 270.457C305.836 270.457 305.164 270.307 304.576 270.007C303.988 269.695 303.508 269.311 303.136 268.855V275.011H301.084V260.377H303.136V261.835ZM309.166 265.291C309.166 264.607 309.022 264.019 308.734 263.527C308.458 263.023 308.086 262.645 307.618 262.393C307.162 262.129 306.67 261.997 306.142 261.997C305.626 261.997 305.134 262.129 304.666 262.393C304.21 262.657 303.838 263.041 303.55 263.545C303.274 264.049 303.136 264.643 303.136 265.327C303.136 266.011 303.274 266.611 303.55 267.127C303.838 267.631 304.21 268.015 304.666 268.279C305.134 268.543 305.626 268.675 306.142 268.675C306.67 268.675 307.162 268.543 307.618 268.279C308.086 268.003 308.458 267.607 308.734 267.091C309.022 266.575 309.166 265.975 309.166 265.291ZM322.374 265.093C322.374 265.465 322.35 265.801 322.302 266.101H314.724C314.784 266.893 315.078 267.529 315.606 268.009C316.134 268.489 316.782 268.729 317.55 268.729C318.654 268.729 319.434 268.267 319.89 267.343H322.104C321.804 268.255 321.258 269.005 320.466 269.593C319.686 270.169 318.714 270.457 317.55 270.457C316.602 270.457 315.75 270.247 314.994 269.827C314.25 269.395 313.662 268.795 313.23 268.027C312.81 267.247 312.6 266.347 312.6 265.327C312.6 264.307 312.804 263.413 313.212 262.645C313.632 261.865 314.214 261.265 314.958 260.845C315.714 260.425 316.578 260.215 317.55 260.215C318.486 260.215 319.32 260.419 320.052 260.827C320.784 261.235 321.354 261.811 321.762 262.555C322.17 263.287 322.374 264.133 322.374 265.093ZM320.232 264.445C320.22 263.689 319.95 263.083 319.422 262.627C318.894 262.171 318.24 261.943 317.46 261.943C316.752 261.943 316.146 262.171 315.642 262.627C315.138 263.071 314.838 263.677 314.742 264.445H320.232ZM326.445 261.817C326.745 261.313 327.141 260.923 327.633 260.647C328.137 260.359 328.731 260.215 329.415 260.215V262.339H328.893C328.089 262.339 327.477 262.543 327.057 262.951C326.649 263.359 326.445 264.067 326.445 265.075V270.295H324.393V260.377H326.445V261.817ZM347.983 260.215C348.763 260.215 349.459 260.377 350.071 260.701C350.695 261.025 351.181 261.505 351.529 262.141C351.889 262.777 352.069 263.545 352.069 264.445V270.295H350.035V264.751C350.035 263.863 349.813 263.185 349.369 262.717C348.925 262.237 348.319 261.997 347.551 261.997C346.783 261.997 346.171 262.237 345.715 262.717C345.271 263.185 345.049 263.863 345.049 264.751V270.295H343.015V264.751C343.015 263.863 342.793 263.185 342.349 262.717C341.905 262.237 341.299 261.997 340.531 261.997C339.763 261.997 339.151 262.237 338.695 262.717C338.251 263.185 338.029 263.863 338.029 264.751V270.295H335.977V260.377H338.029V261.511C338.365 261.103 338.791 260.785 339.307 260.557C339.823 260.329 340.375 260.215 340.963 260.215C341.755 260.215 342.463 260.383 343.087 260.719C343.711 261.055 344.191 261.541 344.527 262.177C344.827 261.577 345.295 261.103 345.931 260.755C346.567 260.395 347.251 260.215 347.983 260.215ZM353.996 265.291C353.996 264.295 354.2 263.413 354.608 262.645C355.028 261.877 355.592 261.283 356.3 260.863C357.02 260.431 357.812 260.215 358.676 260.215C359.456 260.215 360.134 260.371 360.71 260.683C361.298 260.983 361.766 261.361 362.114 261.817V260.377H364.184V270.295H362.114V268.819C361.766 269.287 361.292 269.677 360.692 269.989C360.092 270.301 359.408 270.457 358.64 270.457C357.788 270.457 357.008 270.241 356.3 269.809C355.592 269.365 355.028 268.753 354.608 267.973C354.2 267.181 353.996 266.287 353.996 265.291ZM362.114 265.327C362.114 264.643 361.97 264.049 361.682 263.545C361.406 263.041 361.04 262.657 360.584 262.393C360.128 262.129 359.636 261.997 359.108 261.997C358.58 261.997 358.088 262.129 357.632 262.393C357.176 262.645 356.804 263.023 356.516 263.527C356.24 264.019 356.102 264.607 356.102 265.291C356.102 265.975 356.24 266.575 356.516 267.091C356.804 267.607 357.176 268.003 357.632 268.279C358.1 268.543 358.592 268.675 359.108 268.675C359.636 268.675 360.128 268.543 360.584 268.279C361.04 268.015 361.406 267.631 361.682 267.127C361.97 266.611 362.114 266.011 362.114 265.327ZM369.273 262.051V267.541C369.273 267.913 369.357 268.183 369.525 268.351C369.705 268.507 370.005 268.585 370.425 268.585H371.685V270.295H370.065C369.141 270.295 368.433 270.079 367.941 269.647C367.449 269.215 367.203 268.513 367.203 267.541V262.051H366.033V260.377H367.203V257.911H369.273V260.377H371.685V262.051H369.273ZM375.971 262.051V267.541C375.971 267.913 376.055 268.183 376.223 268.351C376.403 268.507 376.703 268.585 377.123 268.585H378.383V270.295H376.763C375.839 270.295 375.131 270.079 374.639 269.647C374.147 269.215 373.901 268.513 373.901 267.541V262.051H372.731V260.377H373.901V257.911H375.971V260.377H378.383V262.051H375.971ZM381.318 259.063C380.946 259.063 380.634 258.937 380.382 258.685C380.13 258.433 380.004 258.121 380.004 257.749C380.004 257.377 380.13 257.065 380.382 256.813C380.634 256.561 380.946 256.435 381.318 256.435C381.678 256.435 381.984 256.561 382.236 256.813C382.488 257.065 382.614 257.377 382.614 257.749C382.614 258.121 382.488 258.433 382.236 258.685C381.984 258.937 381.678 259.063 381.318 259.063ZM382.326 260.377V270.295H380.274V260.377H382.326ZM388.62 270.457C387.84 270.457 387.138 270.319 386.514 270.043C385.902 269.755 385.416 269.371 385.056 268.891C384.696 268.399 384.504 267.853 384.48 267.253H386.604C386.64 267.673 386.838 268.027 387.198 268.315C387.57 268.591 388.032 268.729 388.584 268.729C389.16 268.729 389.604 268.621 389.916 268.405C390.24 268.177 390.402 267.889 390.402 267.541C390.402 267.169 390.222 266.893 389.862 266.713C389.514 266.533 388.956 266.335 388.188 266.119C387.444 265.915 386.838 265.717 386.37 265.525C385.902 265.333 385.494 265.039 385.146 264.643C384.81 264.247 384.642 263.725 384.642 263.077C384.642 262.549 384.798 262.069 385.11 261.637C385.422 261.193 385.866 260.845 386.442 260.593C387.03 260.341 387.702 260.215 388.458 260.215C389.586 260.215 390.492 260.503 391.176 261.079C391.872 261.643 392.244 262.417 392.292 263.401H390.24C390.204 262.957 390.024 262.603 389.7 262.339C389.376 262.075 388.938 261.943 388.386 261.943C387.846 261.943 387.432 262.045 387.144 262.249C386.856 262.453 386.712 262.723 386.712 263.059C386.712 263.323 386.808 263.545 387 263.725C387.192 263.905 387.426 264.049 387.702 264.157C387.978 264.253 388.386 264.379 388.926 264.535C389.646 264.727 390.234 264.925 390.69 265.129C391.158 265.321 391.56 265.609 391.896 265.993C392.232 266.377 392.406 266.887 392.418 267.523C392.418 268.087 392.262 268.591 391.95 269.035C391.638 269.479 391.194 269.827 390.618 270.079C390.054 270.331 389.388 270.457 388.62 270.457ZM395.463 270.421C395.091 270.421 394.779 270.295 394.527 270.043C394.275 269.791 394.149 269.479 394.149 269.107C394.149 268.735 394.275 268.423 394.527 268.171C394.779 267.919 395.091 267.793 395.463 267.793C395.823 267.793 396.129 267.919 396.381 268.171C396.633 268.423 396.759 268.735 396.759 269.107C396.759 269.479 396.633 269.791 396.381 270.043C396.129 270.295 395.823 270.421 395.463 270.421Z" fill="#333333"/>
<rect width="222" height="74" transform="translate(29 326.295)" fill="#B88E2F"/>
<path d="M108.792 363.535C109.443 363.674 109.965 363.999 110.36 364.511C110.755 365.013 110.952 365.589 110.952 366.239C110.952 367.178 110.621 367.925 109.96 368.479C109.309 369.023 108.397 369.295 107.224 369.295H101.992V358.063H107.048C108.189 358.063 109.08 358.325 109.72 358.847C110.371 359.37 110.696 360.079 110.696 360.975C110.696 361.637 110.52 362.186 110.168 362.623C109.827 363.061 109.368 363.365 108.792 363.535ZM104.728 362.607H106.52C106.968 362.607 107.309 362.511 107.544 362.319C107.789 362.117 107.912 361.823 107.912 361.439C107.912 361.055 107.789 360.762 107.544 360.559C107.309 360.357 106.968 360.255 106.52 360.255H104.728V362.607ZM106.744 367.087C107.203 367.087 107.555 366.986 107.8 366.783C108.056 366.57 108.184 366.266 108.184 365.871C108.184 365.477 108.051 365.167 107.784 364.943C107.528 364.719 107.171 364.607 106.712 364.607H104.728V367.087H106.744ZM115.227 358.063V364.783C115.227 365.455 115.392 365.973 115.723 366.335C116.054 366.698 116.539 366.879 117.179 366.879C117.819 366.879 118.31 366.698 118.651 366.335C118.992 365.973 119.163 365.455 119.163 364.783V358.063H121.899V364.767C121.899 365.77 121.686 366.618 121.259 367.311C120.832 368.005 120.256 368.527 119.531 368.879C118.816 369.231 118.016 369.407 117.131 369.407C116.246 369.407 115.451 369.237 114.747 368.895C114.054 368.543 113.504 368.021 113.099 367.327C112.694 366.623 112.491 365.77 112.491 364.767V358.063H115.227ZM133.452 358.063L129.564 365.583V369.295H126.828V365.583L122.94 358.063H126.044L128.22 362.767L130.38 358.063H133.452ZM147.993 369.295H145.257L140.681 362.367V369.295H137.945V358.063H140.681L145.257 365.023V358.063H147.993V369.295ZM155.288 369.407C154.232 369.407 153.262 369.162 152.376 368.671C151.502 368.181 150.803 367.498 150.28 366.623C149.768 365.738 149.512 364.746 149.512 363.647C149.512 362.549 149.768 361.562 150.28 360.687C150.803 359.813 151.502 359.13 152.376 358.639C153.262 358.149 154.232 357.903 155.288 357.903C156.344 357.903 157.31 358.149 158.184 358.639C159.07 359.13 159.763 359.813 160.264 360.687C160.776 361.562 161.032 362.549 161.032 363.647C161.032 364.746 160.776 365.738 160.264 366.623C159.752 367.498 159.059 368.181 158.184 368.671C157.31 369.162 156.344 369.407 155.288 369.407ZM155.288 366.911C156.184 366.911 156.899 366.613 157.432 366.015C157.976 365.418 158.248 364.629 158.248 363.647C158.248 362.655 157.976 361.866 157.432 361.279C156.899 360.682 156.184 360.383 155.288 360.383C154.382 360.383 153.656 360.677 153.112 361.263C152.579 361.85 152.312 362.645 152.312 363.647C152.312 364.639 152.579 365.434 153.112 366.031C153.656 366.618 154.382 366.911 155.288 366.911ZM178.01 358.063L175.083 369.295H171.771L169.979 361.903L168.123 369.295H164.811L161.963 358.063H164.891L166.507 366.239L168.507 358.063H171.515L173.435 366.239L175.067 358.063H178.01Z" fill="white"/>
<path d="M41.656 74.2953H39.416L34.344 66.6313V74.2953H32.104V63.1113H34.344L39.416 70.7913V63.1113H41.656V74.2953ZM55.1096 69.6713C55.1096 69.9913 55.0883 70.2793 55.0456 70.5353H48.5656C48.619 71.1753 48.843 71.6766 49.2376 72.0393C49.6323 72.402 50.1176 72.5833 50.6936 72.5833C51.5256 72.5833 52.1176 72.226 52.4696 71.5113H54.8856C54.6296 72.3646 54.139 73.0686 53.4136 73.6233C52.6883 74.1673 51.7976 74.4393 50.7416 74.4393C49.8883 74.4393 49.1203 74.2526 48.4376 73.8793C47.7656 73.4953 47.2376 72.9566 46.8536 72.2633C46.4803 71.57 46.2936 70.77 46.2936 69.8633C46.2936 68.946 46.4803 68.1406 46.8536 67.4473C47.227 66.754 47.7496 66.2206 48.4216 65.8473C49.0936 65.474 49.867 65.2873 50.7416 65.2873C51.5843 65.2873 52.3363 65.4686 52.9976 65.8313C53.6696 66.194 54.187 66.7113 54.5496 67.3833C54.923 68.0446 55.1096 68.8073 55.1096 69.6713ZM52.7896 69.0313C52.779 68.4553 52.571 67.9966 52.1656 67.6553C51.7603 67.3033 51.2643 67.1273 50.6776 67.1273C50.123 67.1273 49.6536 67.298 49.2696 67.6393C48.8963 67.97 48.667 68.434 48.5816 69.0313H52.7896ZM72.0326 65.4313L69.4406 74.2953H67.0246L65.4086 68.1033L63.7926 74.2953H61.3606L58.7526 65.4313H61.0246L62.5926 72.1833L64.2886 65.4313H66.6566L68.3206 72.1673L69.8886 65.4313H72.0326ZM89.9051 72.1673H85.4571L84.7211 74.2953H82.3691L86.3851 63.1113H88.9931L93.0091 74.2953H90.6411L89.9051 72.1673ZM89.2971 70.3753L87.6811 65.7033L86.0651 70.3753H89.2971ZM99.7503 66.8073C100.038 66.338 100.412 65.97 100.87 65.7033C101.34 65.4366 101.873 65.3033 102.47 65.3033V67.6553H101.878C101.174 67.6553 100.641 67.8206 100.278 68.1513C99.9263 68.482 99.7503 69.058 99.7503 69.8793V74.2953H97.5103V65.4313H99.7503V66.8073ZM109.219 66.8073C109.507 66.338 109.88 65.97 110.339 65.7033C110.808 65.4366 111.342 65.3033 111.939 65.3033V67.6553H111.347C110.643 67.6553 110.11 67.8206 109.747 68.1513C109.395 68.482 109.219 69.058 109.219 69.8793V74.2953H106.979V65.4313H109.219V66.8073ZM117.584 64.3753C117.189 64.3753 116.858 64.2526 116.592 64.0073C116.336 63.7513 116.208 63.4366 116.208 63.0633C116.208 62.69 116.336 62.3806 116.592 62.1353C116.858 61.8793 117.189 61.7513 117.584 61.7513C117.978 61.7513 118.304 61.8793 118.56 62.1353C118.826 62.3806 118.96 62.69 118.96 63.0633C118.96 63.4366 118.826 63.7513 118.56 64.0073C118.304 64.2526 117.978 64.3753 117.584 64.3753ZM118.688 65.4313V74.2953H116.448V65.4313H118.688ZM127.597 72.2313L129.837 65.4313H132.221L128.941 74.2953H126.221L122.957 65.4313H125.357L127.597 72.2313ZM135.903 69.8313C135.903 68.9353 136.079 68.1406 136.431 67.4473C136.794 66.754 137.279 66.2206 137.887 65.8473C138.506 65.474 139.194 65.2873 139.951 65.2873C140.612 65.2873 141.188 65.4206 141.679 65.6873C142.18 65.954 142.58 66.29 142.879 66.6953V65.4313H145.135V74.2953H142.879V72.9993C142.591 73.4153 142.191 73.762 141.679 74.0393C141.178 74.306 140.596 74.4393 139.935 74.4393C139.188 74.4393 138.506 74.2473 137.887 73.8633C137.279 73.4793 136.794 72.9406 136.431 72.2473C136.079 71.5433 135.903 70.738 135.903 69.8313ZM142.879 69.8633C142.879 69.3193 142.772 68.8553 142.559 68.4713C142.346 68.0766 142.058 67.778 141.695 67.5753C141.332 67.362 140.943 67.2553 140.527 67.2553C140.111 67.2553 139.727 67.3566 139.375 67.5593C139.023 67.762 138.735 68.0606 138.511 68.4553C138.298 68.8393 138.191 69.298 138.191 69.8313C138.191 70.3646 138.298 70.834 138.511 71.2393C138.735 71.634 139.023 71.938 139.375 72.1513C139.738 72.3646 140.122 72.4713 140.527 72.4713C140.943 72.4713 141.332 72.37 141.695 72.1673C142.058 71.954 142.346 71.6553 142.559 71.2713C142.772 70.8766 142.879 70.4073 142.879 69.8633ZM152.563 62.4553V74.2953H150.323V62.4553H152.563Z" fill="#333333"/>
</svg>
